<svg width="512" height="512" viewBox="0 0 512 512" fill="none" xmlns="http://www.w3.org/2000/svg">
<g clip-path="url(#clip0_73_2)">
<path d="M255.596 0.00379393C256.612 0.00594775 257.629 0.00810157 258.676 0.0103207C273.266 0.0599607 287.578 0.310703 301.908 3.31425C302.882 3.5128 303.855 3.71136 304.858 3.91593C353.175 14.0303 397.104 35.9333 432.732 70.2729C433.719 71.2205 433.719 71.2205 434.727 72.1872C444.202 81.326 452.93 90.6177 460.694 101.254C461.551 102.404 462.408 103.554 463.264 104.705C469.294 112.891 474.646 121.399 479.668 130.236C480.032 130.867 480.396 131.499 480.771 132.149C502.272 169.742 512.087 212.438 511.999 255.471C511.999 256.984 511.999 256.984 511.998 258.528C511.957 275.028 511.051 290.934 507.63 307.127C507.411 308.168 507.192 309.209 506.966 310.282C497.98 351.509 479.284 390.061 451.706 422.056C451.073 422.8 450.439 423.545 449.787 424.312C437.991 437.809 425.258 450.472 410.761 461.031C409.613 461.887 408.465 462.744 407.317 463.6C399.136 469.637 390.632 474.993 381.8 480.02C381.169 480.384 380.538 480.748 379.888 481.124C370.935 486.252 361.719 490.461 352.153 494.323C351.146 494.732 350.139 495.14 349.101 495.561C341.405 498.591 333.917 500.706 325.876 503.006C325.876 440.014 325.876 377.023 325.876 312.123C344.331 312.123 362.786 312.123 381.8 312.123C382.13 306.847 382.459 301.57 382.799 296.133C383.226 292.247 383.679 288.387 384.207 284.516C384.324 283.628 384.441 282.74 384.561 281.826C384.987 278.599 385.423 275.374 385.857 272.148C387.309 261.265 387.309 261.265 388.791 250.162C368.029 249.832 347.267 249.502 325.876 249.162C325.814 237.321 325.814 237.321 325.751 225.24C325.733 222.765 325.715 220.29 325.696 217.741C325.69 215.755 325.685 213.769 325.681 211.783C325.671 210.772 325.66 209.76 325.65 208.718C325.647 198.577 326.854 189.951 333.865 182.204C341.515 176.498 351.482 175.9 360.677 176.012C361.472 176.014 362.268 176.016 363.088 176.018C366.018 176.029 368.947 176.057 371.876 176.083C378.447 176.124 385.017 176.165 391.787 176.207C391.787 157.739 391.787 139.27 391.787 120.242C385.113 119.912 378.44 119.582 371.564 119.243C369.484 119.138 367.403 119.034 365.259 118.926C336.082 117.491 307.851 118.1 284.619 138.567C266.56 156.482 261.785 180.718 261.549 205.244C261.529 206.511 261.51 207.778 261.49 209.083C261.441 212.398 261.4 215.713 261.362 219.029C261.322 222.433 261.271 225.837 261.221 229.241C261.124 235.881 261.044 242.522 260.964 249.162C242.838 249.162 224.713 249.162 206.038 249.162C206.038 269.94 206.038 290.717 206.038 312.123C224.163 312.123 242.289 312.123 260.964 312.123C260.964 378.083 260.964 444.042 260.964 512C227.353 512 227.353 512 211.031 509.002C210.128 508.841 209.224 508.68 208.294 508.514C164.742 500.552 123.713 480.972 90.1944 452.037C89.4503 451.403 88.7063 450.769 87.9397 450.116C74.4529 438.312 61.7986 425.57 51.247 411.062C50.3917 409.913 49.5361 408.764 48.6802 407.615C42.6483 399.43 37.2723 390.931 32.2727 382.08C31.871 381.373 31.4694 380.667 31.0556 379.939C18.0477 356.817 9.3107 331.662 3.99839 305.69C3.85124 304.971 3.70408 304.253 3.55246 303.513C0.582618 287.876 -0.0566308 272.412 0.00379115 256.533C0.00594339 255.516 0.00809564 254.498 0.0103131 253.45C0.0599168 238.85 0.310475 224.527 3.31182 210.186C3.51023 209.212 3.70864 208.238 3.91306 207.234C14.02 158.882 35.907 114.921 70.2214 79.2673C70.8527 78.6084 71.4839 77.9494 72.1343 77.2705C81.2665 67.7881 90.5513 59.0536 101.18 51.2846C102.329 50.4271 103.479 49.5695 104.628 48.712C112.807 42.6782 121.298 37.2987 130.14 32.2963C130.847 31.8944 131.553 31.4925 132.281 31.0783C155.385 18.061 180.522 9.31752 206.475 4.00132C207.193 3.85406 207.911 3.70679 208.65 3.55507C224.275 0.583045 239.728 -0.0566723 255.596 0.00379393Z" fill="black"/>
</g>
<defs>
<clipPath id="clip0_73_2">
<rect width="512" height="512" fill="white"/>
</clipPath>
</defs>
</svg>
