<svg width="452" height="469" viewBox="0 0 452 469" fill="none" xmlns="http://www.w3.org/2000/svg">
<path d="M208.874 0.458865C175.398 3.75464 150.489 11.0786 122.313 25.9095C88.9245 43.5785 58.9812 71.4095 37.0758 105.1C27.8897 119.381 16.5836 143.459 11.1073 160.487C6.7792 174.219 3.24607 189.874 1.12619 205.346C-0.375395 216.149 -0.375395 252.219 1.12619 263.022C4.83598 290.029 11.7256 313.649 22.5016 336.261C34.6026 361.895 46.5269 379.106 66.1358 399.522C85.6564 419.663 102.527 432.205 126.287 444.289C142.893 452.712 153.581 456.832 170.452 461.226C214.616 472.761 258.957 470.564 302.061 454.726C315.31 449.874 338.099 437.973 349.758 429.916C376.433 411.423 400.37 385.973 417.683 357.775C424.042 347.43 434.288 325.459 438.44 313.283C459.197 252.677 455.575 187.677 428.282 130.825C417.329 107.938 405.052 89.9024 387.828 71.5011C368.925 51.1771 349.846 36.8039 325.026 24.0786C298.881 10.7124 274.502 3.47999 245.531 0.733512C236.521 -0.0904307 216.117 -0.273529 208.874 0.458865ZM257.013 31.7687C313.013 41.5645 360.446 73.6067 391.537 122.86C406.553 146.48 416.799 174.402 421.481 204.43C423.601 218.438 423.601 249.93 421.481 263.937C411.941 325.092 379.613 375.811 329.443 408.585C307.979 422.592 282.01 432.48 254.363 437.149C240.761 439.346 210.464 439.346 196.95 437.057C153.051 429.642 116.836 410.691 86.0097 378.832C55.5364 347.43 36.9875 309.437 29.8329 263.937C27.713 249.93 27.713 218.438 29.8329 204.43C39.1074 145.198 69.3157 96.1278 116.66 63.3532C143.688 44.5856 176.281 32.8673 209.758 29.6631C219.297 28.7476 246.679 30.0293 257.013 31.7687Z" fill="black"/>
<path d="M148.723 149.226C142.893 152.705 140.331 160.396 142.628 167.079C143.158 168.452 157.555 184.198 174.691 201.867L205.783 234.184L174.691 266.409C157.555 284.17 143.158 299.916 142.628 301.29C140.243 307.973 142.628 314.747 148.723 319.05C151.991 321.339 156.76 321.797 160.912 320.24C162.237 319.691 177.429 304.769 194.565 287.008L225.657 254.783L256.836 287.008C273.884 304.769 289.076 319.691 290.401 320.24C301.796 324.543 312.837 313.1 308.685 301.29C308.155 299.916 293.758 284.17 276.622 266.409L245.53 234.184L276.622 201.867C293.758 184.198 308.155 168.452 308.685 167.079C311.07 160.396 308.332 152.614 302.502 149.135C298.881 147.029 292.963 146.572 289.871 148.219C288.811 148.769 273.884 163.691 256.836 181.36L225.657 213.586L194.565 181.36C177.429 163.6 162.237 148.677 160.912 148.128C157.025 146.663 152.167 147.029 148.723 149.226Z" fill="black"/>
</svg>
