<?xml version="1.0" encoding="UTF-8"?>
<svg version="1.1" xmlns="http://www.w3.org/2000/svg" width="500" height="500">
<path d="M0 0 C165 0 330 0 500 0 C500 165 500 330 500 500 C335 500 170 500 0 500 C0 335 0 170 0 0 Z " fill="#FEFEFE" transform="translate(0,0)"/>
<path d="M0 0 C0.70068656 15.62271507 -1.79261053 31.58517538 -12.03125 43.90625 C-19.12546644 51.45089288 -28.19346936 56.73115645 -38 60 C-38.85563241 62.44814398 -39.49838811 64.73268312 -40.0625 67.25 C-40.23241455 67.96712158 -40.4023291 68.68424316 -40.57739258 69.4230957 C-41.85990696 74.98599414 -42.82853279 80.5740845 -43.60546875 86.23046875 C-44 89 -44 89 -44.50488281 91.1640625 C-45.1431474 94.81992119 -45.23280626 98.44399111 -45.31640625 102.14453125 C-45.3475779 103.2992115 -45.3475779 103.2992115 -45.37937927 104.47721863 C-45.44446049 106.92222667 -45.50356591 109.36733683 -45.5625 111.8125 C-45.60572468 113.47592177 -45.64934021 115.13933344 -45.69335938 116.80273438 C-45.80009907 120.86838648 -45.90148171 124.93414071 -46 129 C-45.34 129 -44.68 129 -44 129 C-43.896875 128.0925 -43.79375 127.185 -43.6875 126.25 C-41.81579695 113.72982419 -38.92289301 103.34640446 -28.4375 95.5 C-22.67537678 91.51146648 -18.20318567 89.80019307 -11.1875 89.375 C-10.02605469 89.30023438 -8.86460937 89.22546875 -7.66796875 89.1484375 C-6.78753906 89.09945312 -5.90710938 89.05046875 -5 89 C-5.18175781 89.53367187 -5.36351562 90.06734375 -5.55078125 90.6171875 C-5.80214844 91.36226563 -6.05351562 92.10734375 -6.3125 92.875 C-6.5909375 93.69613281 -6.869375 94.51726562 -7.15625 95.36328125 C-7.70408537 97.07526679 -8.20709344 98.80248708 -8.65625 100.54296875 C-10.852981 108.9768467 -14.8480356 114.92732862 -22 120 C-24.48599148 121.21917827 -27.03457477 122.21356083 -29.625 123.1875 C-30.29273438 123.44724609 -30.96046875 123.70699219 -31.6484375 123.97460938 C-34.41456351 125.04510014 -37.18596881 126.0619896 -40 127 C-43.3791569 136.12372364 -41.89742772 144.79761255 -38.23046875 153.61328125 C-36.70602756 156.57021322 -34.88471624 159.26182735 -33 162 C-15.56988296 161.95055286 -2.2613438 156.53594689 10.65234375 144.53515625 C28.76657612 125.98509273 31.13906565 100.79476435 34 76 C11.89 76 -10.22 76 -33 76 C-33 70 -33 70 -31 68 C-28.07751465 67.74603271 -28.07751465 67.74603271 -24.28710938 67.74121094 C-23.5975264 67.7377063 -22.90794342 67.73420166 -22.19746399 67.73059082 C-19.91279095 67.72177171 -17.62842632 67.72762313 -15.34375 67.734375 C-13.75956157 67.7330284 -12.17537354 67.73108791 -10.59118652 67.72857666 C-7.26892162 67.72562516 -3.94676415 67.72992382 -0.62451172 67.73925781 C3.63961591 67.75065242 7.90349179 67.74409308 12.16761017 67.73211288 C15.43949286 67.72489495 18.7113156 67.72718189 21.98320007 67.73236847 C23.55572031 67.73370515 25.12824595 67.73205659 26.70075989 67.72740936 C28.89635693 67.72234515 31.09154304 67.7300525 33.28710938 67.74121094 C34.53794312 67.74280212 35.78877686 67.74439331 37.07751465 67.74603271 C40 68 40 68 42 70 C42.1953125 72.3828125 42.1953125 72.3828125 42.125 75.125 C42.10695313 76.03507812 42.08890625 76.94515625 42.0703125 77.8828125 C42.04710937 78.58148438 42.02390625 79.28015625 42 80 C42.53109375 79.72285156 43.0621875 79.44570312 43.609375 79.16015625 C44.31578125 78.79792969 45.0221875 78.43570313 45.75 78.0625 C46.44609375 77.70285156 47.1421875 77.34320313 47.859375 76.97265625 C53.97527903 74.19371446 60.81862706 74.04686487 67.1875 76.125 C71.96934141 78.13890926 75.23888317 81.41905292 78.1328125 85.66015625 C80.73971151 92.69408647 80.08059901 102.48516907 77.90234375 109.5703125 C72.66410676 120.49378269 65.47882786 127.14682615 55 133 C54.30390625 133.39058594 53.6078125 133.78117188 52.890625 134.18359375 C47.28409376 136.975994 41.31145292 138.22005321 35.20263672 139.43041992 C28.51001037 140.83610303 22.93970256 143.18492195 18.6875 148.8125 C14.76982838 153.550765 10.11948868 156.66853702 5 160 C3.83315278 160.81224068 2.66645167 161.62469138 1.5 162.4375 C-1 164 -1 164 -3 164 C-3.0928125 165.3921875 -3.0928125 165.3921875 -3.1875 166.8125 C-4 170 -4 170 -6.15208435 171.67396545 C-9.46384102 173.21597171 -11.73446767 173.38637234 -15.37915039 173.40405273 C-16.64719009 173.41673691 -17.9152298 173.42942108 -19.22169495 173.44248962 C-20.59701705 173.44043842 -21.97233803 173.43745059 -23.34765625 173.43359375 C-24.76582591 173.43815747 -26.18399335 173.44346362 -27.60215759 173.44947815 C-30.56860361 173.45839652 -33.5347802 173.45599968 -36.5012207 173.44604492 C-40.30011141 173.43453776 -44.09807498 173.45479851 -47.89684391 173.48396206 C-50.82313423 173.50231519 -53.74920177 173.50203381 -56.6755352 173.49632454 C-58.07615907 173.49617131 -59.47679803 173.50221683 -60.87736702 173.51461601 C-62.8349408 173.52950986 -64.79266754 173.51622722 -66.75024414 173.50170898 C-67.8632338 173.50154282 -68.97622345 173.50137665 -70.12294006 173.50120544 C-73.65789516 172.88538972 -74.84002905 171.81449662 -77 169 C-77.144375 168.13375 -77.28875 167.2675 -77.4375 166.375 C-77.623125 165.59125 -77.80875 164.8075 -78 164 C-80.47636012 162.62533375 -80.47636012 162.62533375 -83 162 C-83 161.34 -83 160.68 -83 160 C-84.10214844 159.60361328 -84.10214844 159.60361328 -85.2265625 159.19921875 C-89.7461192 157.24498789 -93.2537461 154.15099421 -97 151 C-97.61230469 150.48566406 -98.22460938 149.97132813 -98.85546875 149.44140625 C-111.99329462 137.38587267 -117.23361216 119.81857061 -121 103 C-121.22816406 102.11183594 -121.45632812 101.22367187 -121.69140625 100.30859375 C-123.19771892 93.74612668 -123.23745555 87.14111312 -123.3125 80.4375 C-123.33022461 79.4479834 -123.34794922 78.4584668 -123.36621094 77.43896484 C-123.36524414 76.50906738 -123.36427734 75.57916992 -123.36328125 74.62109375 C-123.36626221 73.7798999 -123.36924316 72.93870605 -123.37231445 72.07202148 C-123.24945068 71.38825439 -123.12658691 70.7044873 -123 70 C-119.92379696 67.94919797 -119.27007555 67.74692587 -115.79492188 67.7253418 C-114.94973999 67.71580978 -114.10455811 67.70627777 -113.23376465 67.69645691 C-111.8650824 67.69782402 -111.8650824 67.69782402 -110.46875 67.69921875 C-109.04931091 67.69279106 -109.04931091 67.69279106 -107.60119629 67.68623352 C-105.59383951 67.68048601 -103.5864619 67.67999305 -101.57910156 67.68432617 C-98.5393398 67.68745945 -95.50057698 67.66412577 -92.4609375 67.63867188 C-72.38232387 67.5726347 -72.38232387 67.5726347 -65 71 C-63 73 -63 73 -63 76 C-80.16 76 -97.32 76 -115 76 C-112.60577164 99.94228361 -110.41743827 121.08711014 -95 140 C-94.30132812 140.90492188 -93.60265625 141.80984375 -92.8828125 142.7421875 C-91.19956647 145.06709472 -91.19956647 145.06709472 -89 146 C-89 146.66 -89 147.32 -89 148 C-88.43152344 148.27199219 -87.86304688 148.54398438 -87.27734375 148.82421875 C-84.93984649 150.03105696 -82.7785981 151.39614051 -80.5625 152.8125 C-68.23501209 160.2271214 -55.31264946 163.55884532 -41 163 C-41.31453125 162.40316406 -41.6290625 161.80632812 -41.953125 161.19140625 C-44.79870257 155.42311196 -46.77455445 149.73577956 -48.25 143.5 C-48.41274414 142.82525635 -48.57548828 142.1505127 -48.74316406 141.45532227 C-50.89141309 131.88512371 -51.16830473 122.21073501 -51.125 112.4375 C-51.1245166 111.39827393 -51.1240332 110.35904785 -51.12353516 109.28833008 C-51.09506231 102.89617664 -50.8309889 96.56173036 -50.375 90.1875 C-49.61103888 80.37735367 -49.61103888 80.37735367 -52 71 C-56.33787332 67.66379575 -61.69257159 66.24121171 -66.85351562 64.6015625 C-77.18973335 61.00119575 -82.71304078 53.17396778 -88.4375 44.25 C-89.06076172 43.30511719 -89.68402344 42.36023438 -90.32617188 41.38671875 C-94.83938402 34.48184794 -94.83938402 34.48184794 -96 31 C-83.09562264 30.18669891 -70.9339541 31.70253476 -60.671875 40.4296875 C-60.12015625 40.94789062 -59.5684375 41.46609375 -59 42 C-58.44828125 42.47695312 -57.8965625 42.95390625 -57.328125 43.4453125 C-50.05633062 50.60910993 -48.67409621 62.22560501 -48 72 C-47.34 72 -46.68 72 -46 72 C-45.64179815 70.00430399 -45.31622777 68.00277585 -45 66 C-44.88140625 65.30003906 -44.7628125 64.60007812 -44.640625 63.87890625 C-43.95522657 59.17087181 -44.17163847 55.79231083 -45.50390625 51.15234375 C-47.78109775 41.27256013 -45.16057613 31.77737005 -39.875 23.3125 C-39.25625 22.549375 -38.6375 21.78625 -38 21 C-37.34 21 -36.68 21 -36 21 C-35.773125 20.42765625 -35.54625 19.8553125 -35.3125 19.265625 C-30.75861508 11.40475222 -20.50555001 7.003785 -12.5 3.4375 C-11.72269531 3.09106445 -10.94539063 2.74462891 -10.14453125 2.38769531 C-6.37564067 0.78114815 -4.2098652 0 0 0 Z " fill="#6E4B1A" transform="translate(303,60)"/>
<path d="M0 0 C1.03437447 -0.00525696 1.03437447 -0.00525696 2.08964539 -0.01062012 C4.37431843 -0.01943923 6.65868306 -0.01358781 8.94335938 -0.00683594 C10.52754781 -0.00818254 12.11173584 -0.01012303 13.69592285 -0.01263428 C17.01818776 -0.01558578 20.34034522 -0.01128711 23.66259766 -0.00195312 C27.92672528 0.00944149 32.19060116 0.00288214 36.45471954 -0.00909805 C39.72660223 -0.01631599 42.99842498 -0.01402904 46.27030945 -0.00884247 C47.84282969 -0.00750578 49.41535532 -0.00915435 50.98786926 -0.01380157 C53.1834663 -0.01886579 55.37865241 -0.01115843 57.57421875 0 C59.45046936 0.00238678 59.45046936 0.00238678 61.36462402 0.00482178 C64.28710938 0.25878906 64.28710938 0.25878906 66.28710938 2.25878906 C66.48242188 4.64160156 66.48242188 4.64160156 66.41210938 7.38378906 C66.3940625 8.29386719 66.37601562 9.20394531 66.35742188 10.14160156 C66.33421875 10.84027344 66.31101562 11.53894531 66.28710938 12.25878906 C67.08375 11.84306641 67.08375 11.84306641 67.89648438 11.41894531 C68.60289062 11.05671875 69.30929687 10.69449219 70.03710938 10.32128906 C71.08125 9.78181641 71.08125 9.78181641 72.14648438 9.23144531 C78.2623884 6.45250352 85.10573643 6.30565394 91.47460938 8.38378906 C96.25645078 10.39769832 99.52599254 13.67784198 102.41992188 17.91894531 C105.02682089 24.95287553 104.36770838 34.74395813 102.18945312 41.82910156 C96.95121614 52.75257176 89.76593724 59.40561521 79.28710938 65.25878906 C78.59101563 65.649375 77.89492188 66.03996094 77.17773438 66.44238281 C71.57120314 69.23478306 65.59856229 70.47884228 59.48974609 71.68920898 C52.79711975 73.0948921 47.22681194 75.44371101 42.97460938 81.07128906 C39.11098038 85.75154874 34.51709807 89.19919787 29.28710938 92.25878906 C28.62710938 92.25878906 27.96710938 92.25878906 27.28710938 92.25878906 C27.28710938 91.26878906 27.28710938 90.27878906 27.28710938 89.25878906 C28.60710937 89.25878906 29.92710937 89.25878906 31.28710938 89.25878906 C30.95710938 87.60878906 30.62710938 85.95878906 30.28710938 84.25878906 C27.31710937 85.24878906 27.31710937 85.24878906 24.28710938 86.25878906 C26.78764833 83.65406098 29.41500696 81.28290491 32.16210938 78.94628906 C52.72328242 60.85549725 55.27797486 34.33795485 58.28710938 8.25878906 C36.17710937 8.25878906 14.06710937 8.25878906 -8.71289062 8.25878906 C-8.71289062 0.00715291 -7.50007856 0.00954086 0 0 Z " fill="#6E4A18" transform="translate(278.712890625,127.7412109375)"/>
<path d="M0 0 C4.53484864 -0.09972601 9.0690432 -0.17186655 13.60473633 -0.21972656 C15.14391211 -0.23970121 16.68301338 -0.26689097 18.22192383 -0.30175781 C36.86444855 -0.71321243 36.86444855 -0.71321243 43.65356445 5.51757812 C47.23218658 9.45763136 47.4407108 13.27124262 47.3046875 18.40234375 C46.71432344 23.43557583 45.04958771 27.24694839 41.1640625 30.5703125 C33.75944076 35.53509719 26.66034952 35.10561402 18 35 C18.66 39.29 19.32 43.58 20 48 C21.98 48.66 23.96 49.32 26 50 C25.67 51.65 25.34 53.3 25 55 C16.75 55 8.5 55 0 55 C0 53.35 0 51.7 0 50 C1.65 49.34 3.3 48.68 5 48 C5.12350083 42.21598128 5.21429191 36.4327279 5.2746582 30.64770508 C5.29981914 28.67947016 5.33395164 26.71132883 5.37719727 24.7434082 C5.4377807 21.91594381 5.46619307 19.08971318 5.48828125 16.26171875 C5.51408768 15.38037766 5.5398941 14.49903656 5.56648254 13.59098816 C5.567544 11.28449361 5.54342296 9.24222734 5 7 C2.57046518 5.12729831 2.57046518 5.12729831 0 4 C0 2.68 0 1.36 0 0 Z " fill="#6C4712" transform="translate(341,329)"/>
<path d="M0 0 C2.79192205 -0.05380578 5.5828141 -0.09357669 8.375 -0.125 C9.1690625 -0.14175781 9.963125 -0.15851563 10.78125 -0.17578125 C12.85492015 -0.19335473 14.92883241 -0.10335168 17 0 C19.11978163 2.11978163 19.58461104 3.25698 20.515625 6.04296875 C20.7943042 6.86224854 21.0729834 7.68152832 21.36010742 8.52563477 C21.65377197 9.40405029 21.94743652 10.28246582 22.25 11.1875 C24.84055485 18.77436758 27.62119537 26.22818626 30.65234375 33.6484375 C32.25719472 37.63963208 33.71887312 41.67099299 35.140625 45.73046875 C35.97219753 47.92657622 36.81195009 49.97305989 38 52 C40.05000871 52.80528889 40.05000871 52.80528889 42 53 C42 54.65 42 56.3 42 58 C33.75 58 25.5 58 17 58 C17 56.35 17 54.7 17 53 C18.98 52.505 18.98 52.505 21 52 C20.855625 50.72125 20.71125 49.4425 20.5625 48.125 C20.48128906 47.40570313 20.40007812 46.68640625 20.31640625 45.9453125 C20.08707039 43.92595684 20.08707039 43.92595684 19 42 C12.4 42 5.8 42 -1 42 C-1.99 45.3 -2.98 48.6 -4 52 C-2.02 52.33 -0.04 52.66 2 53 C2 54.65 2 56.3 2 58 C-4.93 58 -11.86 58 -19 58 C-19 56.35 -19 54.7 -19 53 C-18.236875 52.95875 -17.47375 52.9175 -16.6875 52.875 C-13.79703196 52.24078896 -13.79703196 52.24078896 -12.375 49.5625 C-10.98986582 45.97374327 -9.93069574 42.38243508 -8.875 38.6875 C-7.97924619 35.93625617 -6.86841424 33.42366991 -5.625 30.8125 C-1.91254006 22.93758498 1.04336356 14.48584715 3 6 C2.01 5.67 1.02 5.34 0 5 C0 3.35 0 1.7 0 0 Z " fill="#6C4714" transform="translate(289,255)"/>
<path d="M0 0 C2.70813917 2.28499243 3.90353678 3.96402583 4.375 7.5 C3.80202133 12.37031868 1.50304993 15.36127947 -2.125 18.5625 C-4 19.6875 -4 19.6875 -6 19.6875 C-6 21.0075 -6 22.3275 -6 23.6875 C-5.34 23.6875 -4.68 23.6875 -4 23.6875 C-2.09677041 25.94982951 -0.39659094 28.32946837 1.34375 30.71875 C1.8903125 31.3684375 2.436875 32.018125 3 32.6875 C3.66 32.6875 4.32 32.6875 5 32.6875 C6.98 28.2325 6.98 28.2325 9 23.6875 C8.01 23.3575 7.02 23.0275 6 22.6875 C6 21.3675 6 20.0475 6 18.6875 C11.28 18.6875 16.56 18.6875 22 18.6875 C22 20.0075 22 21.3275 22 22.6875 C21.05125 22.749375 20.1025 22.81125 19.125 22.875 C18.09375 23.143125 17.0625 23.41125 16 23.6875 C14.81971716 25.83847933 14.81971716 25.83847933 14 28.6875 C12.6551115 30.73530606 11.26064212 32.73523552 9.828125 34.72265625 C8.73504244 36.70086614 8.73504244 36.70086614 9.75390625 38.828125 C11.31210306 41.15320865 12.55243083 42.29833912 15 43.6875 C18.65274469 44.41231084 18.65274469 44.41231084 22 44.6875 C21.67012361 47.16157292 21.42027913 48.3512767 19.4375 49.9375 C15.92738488 51.01753542 12.60592152 51.30127388 9 50.6875 C7 49.35416667 5 48.02083333 3 46.6875 C0.34805797 47.31891477 -1.44471357 48.35309417 -3.7578125 49.74609375 C-9.10219425 51.98998922 -16.21280421 51.79386779 -21.55859375 49.671875 C-24.92404997 47.62172552 -26.78783815 46.00574277 -29 42.6875 C-29.74462348 38.19111975 -30.08331362 33.61143685 -27.796875 29.55078125 C-26.28714151 27.79323797 -24.72329549 26.23426279 -23 24.6875 C-21.824375 23.4809375 -21.824375 23.4809375 -20.625 22.25 C-20.08875 21.734375 -19.5525 21.21875 -19 20.6875 C-19.30035156 20.17960937 -19.60070312 19.67171875 -19.91015625 19.1484375 C-21.72870575 15.85655468 -22.96991798 13.42450954 -23.125 9.625 C-21.58229849 5.59683496 -19.19770738 2.57498204 -16 -0.3125 C-10.73926821 -2.06607726 -5.10888089 -2.23513539 0 0 Z " fill="#705023" transform="translate(181,333.3125)"/>
<path d="M0 0 C15.18 0 30.36 0 46 0 C46.64774951 3.88649705 47.13802817 6.98873237 47.125 10.8125 C47.12886719 11.96685547 47.12886719 11.96685547 47.1328125 13.14453125 C47 15 47 15 46 16 C44.33382885 16.04063832 42.66611905 16.042721 41 16 C40.54625 14.865625 40.0925 13.73125 39.625 12.5625 C38.42904194 8.95278308 38.42904194 8.95278308 36 8 C34.6265365 7.84995027 33.2471474 7.75161994 31.8671875 7.68359375 C30.77833252 7.62643188 30.77833252 7.62643188 29.66748047 7.56811523 C28.28520264 7.50346069 28.28520264 7.50346069 26.875 7.4375 C22.481875 7.2209375 22.481875 7.2209375 18 7 C18.33 12.94 18.66 18.88 19 25 C22.96 25 26.92 25 31 25 C31.66 23.68 32.32 22.36 33 21 C34.65 21 36.3 21 38 21 C38 26.28 38 31.56 38 37 C33 36 33 36 31.54296875 34.48046875 C29.29605513 32.32456936 27.36620537 32.49212973 24.3125 32.3125 C22.559375 32.209375 20.80625 32.10625 19 32 C19 38.93 19 45.86 19 53 C21.35125 52.896875 23.7025 52.79375 26.125 52.6875 C26.85348145 52.66260498 27.58196289 52.63770996 28.33251953 52.61206055 C32.88904631 52.35809628 36.15180746 51.44473408 40 49 C41.50560748 47.25549662 41.50560748 47.25549662 42.375 45.3125 C42.91125 44.219375 43.4475 43.12625 44 42 C45.65 42 47.3 42 49 42 C49.02685095 44.47923801 49.04676547 46.9581884 49.0625 49.4375 C49.07087891 50.14455078 49.07925781 50.85160156 49.08789062 51.58007812 C49.09653588 53.38693559 49.05220011 55.19387603 49 57 C48 58 48 58 46.01951599 58.12025452 C45.15125687 58.11803391 44.28299774 58.11581329 43.38842773 58.11352539 C42.40748642 58.11344986 41.4265451 58.11337433 40.4158783 58.11329651 C39.3492244 58.10813522 38.2825705 58.10297394 37.18359375 58.09765625 C35.55430687 58.09553383 35.55430687 58.09553383 33.8921051 58.09336853 C30.40720925 58.08775048 26.92237658 58.07519492 23.4375 58.0625 C21.08138113 58.05748733 18.72526126 58.05292402 16.36914062 58.04882812 C10.57940536 58.03777519 4.78970719 58.02101951 -1 58 C-0.67 56.35 -0.34 54.7 0 53 C2.475 52.505 2.475 52.505 5 52 C5.02467081 45.91276345 5.04284604 39.82555583 5.05493164 33.73828125 C5.05996852 31.66633599 5.06679825 29.5943943 5.07543945 27.52246094 C5.08753321 24.54881918 5.09323467 21.57522431 5.09765625 18.6015625 C5.10281754 17.67131256 5.10797882 16.74106262 5.11329651 15.78262329 C5.11337204 14.92188202 5.11344757 14.06114075 5.11352539 13.17431641 C5.11685631 12.03514267 5.11685631 12.03514267 5.12025452 10.87295532 C5.11601039 8.90786639 5.11601039 8.90786639 4 7 C2.35857037 5.9590934 0.69287785 4.95495674 -1 4 C-0.67 2.68 -0.34 1.36 0 0 Z " fill="#6C4916" transform="translate(208,255)"/>
<path d="M0 0 C0.70087175 15.62684416 -1.79883412 31.56386484 -12.01953125 43.8984375 C-17.68535137 49.91068844 -24.156431 54.33020167 -32 57 C-32.66 57 -33.32 57 -34 57 C-34 56.34 -34 55.68 -34 55 C-33.34 55 -32.68 55 -32 55 C-31.87625 54.38125 -31.7525 53.7625 -31.625 53.125 C-31 51 -31 51 -29 49 C-28.3732442 45.89668831 -27.98036934 42.79009476 -27.5625 39.65234375 C-27.376875 38.77707031 -27.19125 37.90179688 -27 37 C-26.01 36.505 -26.01 36.505 -25 36 C-24.27129528 33.68529088 -23.60760482 31.3494053 -23 29 C-22.67 28.01 -22.34 27.02 -22 26 C-27.44123916 32.66471306 -32.95013749 39.62582863 -36.04296875 47.734375 C-37 50 -37 50 -39 51 C-38.47731534 53.76276177 -37.89130413 56.3260876 -37 59 C-39.475 59.495 -39.475 59.495 -42 60 C-44.97955582 49.19911015 -46.13634865 35.44221978 -41.046875 25.0546875 C-40 23.375 -40 23.375 -38 21 C-37.34 21 -36.68 21 -36 21 C-35.773125 20.42765625 -35.54625 19.8553125 -35.3125 19.265625 C-30.75861508 11.40475222 -20.50555001 7.003785 -12.5 3.4375 C-11.72269531 3.09106445 -10.94539063 2.74462891 -10.14453125 2.38769531 C-6.37564067 0.78114815 -4.2098652 0 0 0 Z " fill="#6D4915" transform="translate(303,60)"/>
<path d="M0 0 C0.77943466 0.00222061 1.55886932 0.00444122 2.36192322 0.00672913 C3.68317955 0.00684242 3.68317955 0.00684242 5.03112793 0.00695801 C5.98841293 0.01211929 6.94569794 0.01728058 7.93199158 0.02259827 C9.39480812 0.02472069 9.39480812 0.02472069 10.88717651 0.02688599 C14.01542675 0.03250319 17.14360656 0.04505859 20.27183533 0.05775452 C22.38706867 0.0627673 24.50230313 0.06733059 26.61753845 0.07142639 C31.8148314 0.08247821 37.0120714 0.09975436 42.20933533 0.12025452 C42.20933533 5.40025452 42.20933533 10.68025452 42.20933533 16.12025452 C40.22933533 16.12025452 38.24933533 16.12025452 36.20933533 16.12025452 C35.54933533 13.48025452 34.88933533 10.84025452 34.20933533 8.12025452 C28.26933533 7.79025452 22.32933533 7.46025452 16.20933533 7.12025452 C16.20933533 13.72025452 16.20933533 20.32025452 16.20933533 27.12025452 C22.94572647 27.10227568 22.94572647 27.10227568 28.52183533 24.05775452 C29.07871033 23.41837952 29.63558533 22.77900452 30.20933533 22.12025452 C31.85933533 22.12025452 33.50933533 22.12025452 35.20933533 22.12025452 C35.20933533 27.73025452 35.20933533 33.34025452 35.20933533 39.12025452 C33.55933533 39.12025452 31.90933533 39.12025452 30.20933533 39.12025452 C29.83808533 38.31587952 29.46683533 37.51150452 29.08433533 36.68275452 C27.46270921 33.86812216 27.46270921 33.86812216 24.58042908 33.56556702 C21.79599331 33.33086362 19.00190652 33.21881585 16.20933533 33.12025452 C16.53933533 39.72025452 16.86933533 46.32025452 17.20933533 53.12025452 C19.18933533 53.12025452 21.16933533 53.12025452 23.20933533 53.12025452 C23.53933533 54.77025452 23.86933533 56.42025452 24.20933533 58.12025452 C15.62933533 58.12025452 7.04933533 58.12025452 -1.79066467 58.12025452 C-1.79066467 56.47025452 -1.79066467 54.82025452 -1.79066467 53.12025452 C-0.14066467 53.12025452 1.50933533 53.12025452 3.20933533 53.12025452 C2.87933533 37.94025452 2.54933533 22.76025452 2.20933533 7.12025452 C0.55933533 6.79025452 -1.09066467 6.46025452 -2.79066467 6.12025452 C-2.83338567 4.45413547 -2.83130299 2.78642567 -2.79066467 1.12025452 C-1.79066467 0.12025452 -1.79066467 0.12025452 0 0 Z " fill="#6A450F" transform="translate(345.79066467285156,254.87974548339844)"/>
<path d="M0 0 C7.92 0 15.84 0 24 0 C24 1.32 24 2.64 24 4 C19.92857143 7 19.92857143 7 17 7 C17.04423666 11.75124611 17.11415474 16.50117382 17.20751953 21.25170898 C17.23568186 22.86651089 17.25692 24.48144943 17.27099609 26.09643555 C17.29249258 28.42307237 17.33917211 30.74807477 17.390625 33.07421875 C17.39185364 33.79212082 17.39308228 34.51002289 17.39434814 35.24967957 C17.53484385 40.09703267 18.57910345 42.57910345 22 46 C26.11776605 48.69363747 30.23709801 48.51267348 35 48 C38.95575334 46.75467025 40.48297633 45.84537045 42.6484375 42.3046875 C45.06924115 36.2838542 44.34983732 29.55524903 44.25 23.1875 C44.243517 21.83919823 44.23829784 20.49088977 44.234375 19.14257812 C44.52414057 12.88632165 44.52414057 12.88632165 43 7 C41.35636866 6.27840576 39.68949614 5.60648579 38 5 C38.33 3.35 38.66 1.7 39 0 C44.94 0 50.88 0 57 0 C57 1.65 57 3.3 57 5 C55.35 5.66 53.7 6.32 52 7 C51.9906543 7.98806641 51.98130859 8.97613281 51.97167969 9.99414062 C51.93153064 13.69217501 51.86570606 17.38939905 51.79248047 21.08691406 C51.76441418 22.68120847 51.74312887 24.27563832 51.72900391 25.87011719 C51.57406689 42.3760735 51.57406689 42.3760735 47 49 C40.31712586 55.34873044 33.93448245 55.70437374 25 56 C19.1267999 55.80743606 14.33871909 53.9898324 10 50 C6.59253047 44.92012096 5.41641872 41.1446725 5.4609375 34.984375 C5.44914459 34.24672913 5.43735168 33.50908325 5.42520142 32.74908447 C5.39018261 30.41583669 5.38079269 28.08348829 5.375 25.75 C5.35863775 23.40249869 5.3366112 21.05539346 5.30337524 18.70806885 C5.28379285 17.25354246 5.27440525 15.798834 5.27645874 14.34417725 C5.23762156 10.6725739 5.09474287 9.1421143 3 6 C2.01 5.67 1.02 5.34 0 5 C0 3.35 0 1.7 0 0 Z " fill="#6B4613" transform="translate(275,329)"/>
<path d="M0 0 C8.25 0 16.5 0 25 0 C25.33 1.32 25.66 2.64 26 4 C24 6 24 6 20 7 C19.67 21.85 19.34 36.7 19 52 C30.9894349 51.60633906 30.9894349 51.60633906 38 49 C39.54069303 47.11361539 39.54069303 47.11361539 40.375 44.875 C40.69210938 44.15054688 41.00921875 43.42609375 41.3359375 42.6796875 C41.66464844 41.84824219 41.66464844 41.84824219 42 41 C43.98 41 45.96 41 48 41 C47.67 46.61 47.34 52.22 47 58 C31.16 58 15.32 58 -1 58 C-0.67 56.35 -0.34 54.7 0 53 C1.65 53 3.3 53 5 53 C5 37.82 5 22.64 5 7 C2.525 6.01 2.525 6.01 0 5 C0 3.35 0 1.7 0 0 Z " fill="#6E4916" transform="translate(147,255)"/>
<path d="M0 0 C0 -0.66 0 -1.32 0 -2 C1.32 -2 2.64 -2 4 -2 C4 3.61 4 9.22 4 15 C2.35 15 0.7 15 -1 15 C-1.32871094 14.18595703 -1.32871094 14.18595703 -1.6640625 13.35546875 C-3.29607326 9.67349325 -4.43918804 7.40786324 -7.75 5 C-13.63255367 3.18998349 -19.39764274 3.19882137 -25 6 C-26.38249718 8.2029802 -26.38249718 8.2029802 -27 11 C-27.37125 11.99 -27.7425 12.98 -28.125 14 C-30.39457497 22.2975661 -29.94735202 31.37752714 -26 39 C-22.93785505 42.59802032 -20.80982912 44.71683893 -15.984375 45.203125 C-10.5181459 45.31780114 -6.81284523 44.65197594 -2 42 C-1.34 41.01 -0.68 40.02 0 39 C2.97 39.495 2.97 39.495 6 40 C5.43337348 43.40711788 4.45879454 44.87185882 1.8125 47.0625 C1.24144531 47.54847656 0.67039062 48.03445313 0.08203125 48.53515625 C-5.43820765 52.41900163 -9.77534249 53.53160366 -16.375 53.4375 C-17.50989868 53.4228772 -17.50989868 53.4228772 -18.66772461 53.40795898 C-27.24745107 53.13430569 -31.50507964 50.81818778 -37.375 44.5625 C-44.25515467 36.68184475 -43.78477803 28.20834697 -43.22509766 18.22705078 C-42.6009047 12.05146713 -40.24085458 8.01374094 -35.6875 3.921875 C-24.79728375 -4.24578719 -12.47302647 -5.29158699 0 0 Z " fill="#6B4613" transform="translate(259,331)"/>
<path d="M0 0 C3.45658479 2.04573386 4.7785359 3.66780385 7 7 C8.4049483 16.51041926 6.29291303 23.13939405 1 31 C0.34 31 -0.32 31 -1 31 C-1 31.66 -1 32.32 -1 33 C-1.66 33 -2.32 33 -3 33 C-3 33.66 -3 34.32 -3 35 C-10.75297664 41.16819985 -21.81700276 47.61999799 -32 47 C-31.608125 45.845 -31.21625 44.69 -30.8125 43.5 C-30.20554916 41.66758652 -29.60188297 39.83408434 -29 38 C-28.59007812 36.75476563 -28.18015625 35.50953125 -27.7578125 34.2265625 C-27.31569712 32.86002405 -26.87563939 31.49281841 -26.4375 30.125 C-26.21545898 29.43212891 -25.99341797 28.73925781 -25.76464844 28.02539062 C-24.51896986 24.02343683 -23.6309028 20.16442052 -23.0625 16 C-22.01405149 9.43236028 -18.61623062 5.39198228 -13.8125 1 C-9.24667188 -0.62340555 -4.78061219 -0.66137793 0 0 Z " fill="#FBFAFA" transform="translate(366,144)"/>
<path d="M0 0 C0.66846954 -0.00175232 1.33693909 -0.00350464 2.02566528 -0.00531006 C4.24052509 -0.00971957 6.45530536 -0.00679342 8.67016602 -0.00341797 C10.20711787 -0.00409135 11.74406963 -0.00506166 13.28102112 -0.00631714 C16.50490328 -0.00779296 19.72875777 -0.00564357 22.95263672 -0.00097656 C27.08656491 0.00471587 31.22042811 0.00144407 35.3543539 -0.00454903 C38.52932729 -0.00816185 41.70428526 -0.00701264 44.87925911 -0.00442123 C46.40350413 -0.00375372 47.92775055 -0.00457429 49.45199394 -0.00690079 C51.58261701 -0.00943858 53.71313478 -0.00557057 55.84375 0 C57.05683334 0.00079559 58.26991669 0.00159119 59.51976013 0.00241089 C62.48657227 0.12939453 62.48657227 0.12939453 65.48657227 1.12939453 C65.48657227 4.09939453 65.48657227 7.06939453 65.48657227 10.12939453 C67.34282227 9.17033203 67.34282227 9.17033203 69.23657227 8.19189453 C75.49258057 4.95962357 81.70138389 4.10461735 88.63891602 5.59033203 C94.40179699 7.47073465 98.22867834 10.82041205 101.61938477 15.78955078 C104.25802573 22.90912707 103.60434005 32.81037854 101.21313477 39.91064453 C99.31078341 43.73390678 97.51581339 47.10015341 94.48657227 50.12939453 C93.49657227 50.12939453 92.50657227 50.12939453 91.48657227 50.12939453 C91.48657227 50.78939453 91.48657227 51.44939453 91.48657227 52.12939453 C89.83657227 52.78939453 88.18657227 53.44939453 86.48657227 54.12939453 C85.49657227 53.13939453 84.50657227 52.14939453 83.48657227 51.12939453 C88.48657227 46.12939453 88.48657227 46.12939453 90.23657227 44.56689453 C91.7515792 42.82463656 92.09843344 41.38059971 92.48657227 39.12939453 C93.14657227 39.12939453 93.80657227 39.12939453 94.48657227 39.12939453 C94.32157227 38.55189453 94.15657227 37.97439453 93.98657227 37.37939453 C93.48657227 35.12939453 93.48657227 35.12939453 93.48657227 31.12939453 C93.4026809 24.05850861 93.4026809 24.05850861 89.98657227 18.06689453 C88.74907227 17.10783203 88.74907227 17.10783203 87.48657227 16.12939453 C86.99157227 15.63439453 86.99157227 15.63439453 86.48657227 15.12939453 C81.42465983 14.60336956 76.27356534 14.08067541 71.92407227 17.06689453 C71.11969727 17.74751953 70.31532227 18.42814453 69.48657227 19.12939453 C68.82657227 19.45939453 68.16657227 19.78939453 67.48657227 20.12939453 C67.48657227 19.46939453 67.48657227 18.80939453 67.48657227 18.12939453 C66.00157227 18.62439453 66.00157227 18.62439453 64.48657227 19.12939453 C64.48657227 20.11939453 64.48657227 21.10939453 64.48657227 22.12939453 C63.86782227 22.41814453 63.24907227 22.70689453 62.61157227 23.00439453 C60.35331462 24.06659495 60.35331462 24.06659495 58.48657227 26.12939453 C57.48657227 25.12939453 57.48657227 25.12939453 57.36157227 22.31689453 C57.48657227 19.12939453 57.48657227 19.12939453 57.98657227 17.25439453 C58.79460331 13.82026261 58.65721332 10.65597625 58.48657227 7.12939453 C56.63571281 4.85067947 56.63571281 4.85067947 53.77841187 4.8888855 C52.05299667 4.89554733 52.05299667 4.89554733 50.29272461 4.90234375 C48.99152679 4.90249481 47.69032898 4.90264587 46.34970093 4.90280151 C44.923969 4.9130156 43.49823862 4.92344761 42.07250977 4.93408203 C40.61805414 4.93781158 39.163596 4.94065883 37.70913696 4.94265747 C33.87859171 4.95029853 30.0481978 4.96995096 26.2177124 4.99206543 C22.30995735 5.01251375 18.40217788 5.02165701 14.49438477 5.03173828 C6.82504489 5.05319651 -0.84417023 5.08733802 -8.51342773 5.12939453 C-8.51342773 3.80939453 -8.51342773 2.48939453 -8.51342773 1.12939453 C-5.64899426 -0.30282221 -3.2015894 0.00210112 0 0 Z " fill="#6B4712" transform="translate(279.513427734375,129.87060546875)"/>
<path d="M0 0 C6.6 0 13.2 0 20 0 C20.33 0.66 20.66 1.32 21 2 C20.34 2 19.68 2 19 2 C19 2.66 19 3.32 19 4 C16.69 4 14.38 4 12 4 C12 12.25 12 20.5 12 29 C14.97 29 17.94 29 21 29 C20.67 29.99 20.34 30.98 20 32 C17.36 32.33 14.72 32.66 12 33 C12.66 37.29 13.32 41.58 14 46 C15.98 46.66 17.96 47.32 20 48 C19.67 49.65 19.34 51.3 19 53 C10.75 53 2.5 53 -6 53 C-6 51.35 -6 49.7 -6 48 C-3.03 47.505 -3.03 47.505 0 47 C0 31.49 0 15.98 0 0 Z " fill="#6C4714" transform="translate(347,331)"/>
<path d="M0 0 C5.28 0 10.56 0 16 0 C16 1.32 16 2.64 16 4 C14.576875 4.0928125 14.576875 4.0928125 13.125 4.1875 C12.09375 4.455625 11.0625 4.72375 10 5 C8.81971716 7.15097933 8.81971716 7.15097933 8 10 C6.6551115 12.04780606 5.26064212 14.04773552 3.828125 16.03515625 C2.73504244 18.01336614 2.73504244 18.01336614 3.75390625 20.140625 C5.31210306 22.46570865 6.55243083 23.61083912 9 25 C12.65274469 25.72481084 12.65274469 25.72481084 16 26 C15.67012361 28.47407292 15.42027913 29.6637767 13.4375 31.25 C9.92738488 32.33003542 6.60592152 32.61377388 3 32 C1 30.66666667 -1 29.33333333 -3 28 C-5.57114212 28.61141128 -5.57114212 28.61141128 -8 30 C-13.00960619 31.13854686 -17.89414936 31.10211701 -23 31 C-23 30.34 -23 29.68 -23 29 C-24.32 29 -25.64 29 -27 29 C-27.12375 27.865625 -27.2475 26.73125 -27.375 25.5625 C-27.58125 24.386875 -27.7875 23.21125 -28 22 C-28.66 21.67 -29.32 21.34 -30 21 C-29.67 22.32 -29.34 23.64 -29 25 C-30.32 25 -31.64 25 -33 25 C-34.20272819 22.59454362 -34.10071472 21.05003047 -34.0625 18.375 C-34.05347656 17.55773437 -34.04445312 16.74046875 -34.03515625 15.8984375 C-34.02355469 15.27195312 -34.01195312 14.64546875 -34 14 C-33.34 14 -32.68 14 -32 14 C-31.67 13.01 -31.34 12.02 -31 11 C-28.41206973 11.99951378 -27.22352901 12.60336771 -25.83984375 15.05859375 C-25.54207031 15.84363281 -25.24429688 16.62867188 -24.9375 17.4375 C-23.72380153 20.59936682 -22.74359777 22.92251611 -20 25 C-15.79838392 25.26676927 -12.03038366 25.34346122 -8 24 C-8.680625 22.88625 -8.680625 22.88625 -9.375 21.75 C-10.68640796 19.53069422 -11.88280803 17.32032178 -13 15 C-8.53763531 13.19380477 -5.68965706 12.88341499 -1 14 C0.32 11.03 1.64 8.06 3 5 C2.01 4.67 1.02 4.34 0 4 C0 2.68 0 1.36 0 0 Z " fill="#6D4B19" transform="translate(187,352)"/>
<path d="M0 0 C11.64452045 -0.73389835 20.47552679 0.7377634 31 6 C31.625 8.0625 31.625 8.0625 32 10 C31.34 10 30.68 10 30 10 C29.67 10.66 29.34 11.32 29 12 C28.67 11.67 28.34 11.34 28 11 C27.34 11.66 26.68 12.32 26 13 C24.68 13 23.36 13 22 13 C23.2375 13.680625 23.2375 13.680625 24.5 14.375 C25.325 14.91125 26.15 15.4475 27 16 C27 16.66 27 17.32 27 18 C28.32 18.66 29.64 19.32 31 20 C31 20.66 31 21.32 31 22 C31.66 22 32.32 22 33 22 C33.99 25.3 34.98 28.6 36 32 C33 34 33 34 30.375 34 C21.4895101 31.36726225 16.09251981 25.43486979 11 18 C10.58508301 17.39816895 10.17016602 16.79633789 9.74267578 16.17626953 C1.29261561 3.87784684 1.29261561 3.87784684 0 0 Z " fill="#6D4A17" transform="translate(207,91)"/>
<path d="M0 0 C0.68958298 -0.00511093 1.37916595 -0.01022186 2.08964539 -0.01548767 C4.37430442 -0.02941417 6.65866288 -0.02842484 8.94335938 -0.02612305 C10.52754835 -0.03000797 12.11173628 -0.03434222 13.69592285 -0.03910828 C17.01818212 -0.04657681 20.34033513 -0.04627442 23.66259766 -0.04101562 C27.92680677 -0.03521647 32.19058218 -0.05215936 36.45471954 -0.0753603 C39.72660885 -0.0900678 42.99839294 -0.0909735 46.27030945 -0.08785057 C47.84283814 -0.08836517 49.4153725 -0.09362881 50.98786926 -0.10366249 C53.1836088 -0.11595404 55.37849363 -0.10928046 57.57421875 -0.09765625 C58.82505249 -0.09828568 60.07588623 -0.0989151 61.36462402 -0.0995636 C62.32904419 0.0239296 63.29346436 0.14742279 64.28710938 0.2746582 C65.27710938 1.7596582 65.27710938 1.7596582 66.28710938 3.2746582 C41.86710937 3.2746582 17.44710937 3.2746582 -7.71289062 3.2746582 C-7.71289062 4.5946582 -7.71289062 5.9146582 -7.71289062 7.2746582 C13.73710937 7.2746582 35.18710937 7.2746582 57.28710938 7.2746582 C57.61710937 6.6146582 57.94710937 5.9546582 58.28710938 5.2746582 C60.3486033 10.29954964 60.77282527 14.9091919 60.28710938 20.2746582 C59.79210937 20.7696582 59.79210937 20.7696582 59.28710938 21.2746582 C59.24630155 23.27424184 59.24456581 25.27511074 59.28710938 27.2746582 C63.20314241 24.48045329 63.20314241 24.48045329 65.28710938 20.2746582 C66.27710938 20.2746582 67.26710938 20.2746582 68.28710938 20.2746582 C67.84916047 22.82936012 67.36403076 25.09726807 66.33007812 27.48168945 C65.07005875 30.85589864 64.53865124 34.23630649 63.97460938 37.7746582 C62.67002811 45.39899503 60.36886227 52.16104678 57.28710938 59.2746582 C56.62710938 59.2746582 55.96710938 59.2746582 55.28710938 59.2746582 C54.79210937 57.2946582 54.79210937 57.2946582 54.28710938 55.2746582 C53.62710938 55.2746582 52.96710938 55.2746582 52.28710938 55.2746582 C51.29710937 54.7796582 51.29710937 54.7796582 50.28710938 54.2746582 C50.53460938 53.1402832 50.78210938 52.0059082 51.03710938 50.8371582 C51.21757812 50.00958008 51.39804687 49.18200195 51.58398438 48.3293457 C52.10252618 46.07656963 52.6605837 43.83280241 53.24023438 41.5949707 C56.12040223 30.2247558 57.08769646 20.26878738 58.28710938 8.2746582 C36.17710937 8.2746582 14.06710937 8.2746582 -8.71289062 8.2746582 C-8.71289062 0.02481646 -7.49917912 0.0276229 0 0 Z " fill="#6E4C1C" transform="translate(278.712890625,127.725341796875)"/>
<path d="M0 0 C-0.18175781 0.53367188 -0.36351562 1.06734375 -0.55078125 1.6171875 C-0.92783203 2.73480469 -0.92783203 2.73480469 -1.3125 3.875 C-1.5909375 4.69613281 -1.869375 5.51726562 -2.15625 6.36328125 C-2.70408537 8.07526679 -3.20709344 9.80248708 -3.65625 11.54296875 C-5.77511046 19.67787943 -9.76935589 26.39868102 -17 31 C-22.12364821 33.44306405 -26.28730123 35.11330973 -32 35 C-34.73774618 35.92745649 -34.73774618 35.92745649 -37 37 C-36.25 34.5625 -36.25 34.5625 -35 32 C-32.50523949 30.95381011 -30.73143089 31 -28 31 C-28 29.68 -28 28.36 -28 27 C-26.62815754 24.83151108 -25.26248907 22.88219538 -23.6875 20.875 C-23.28337891 20.33746094 -22.87925781 19.79992187 -22.46289062 19.24609375 C-20.44952232 16.62053053 -18.77976333 14.85317556 -16 13 C-18.64 13 -21.28 13 -24 13 C-23.1875 10.5625 -23.1875 10.5625 -22 8 C-21.01 7.67 -20.02 7.34 -19 7 C-18.67 8.32 -18.34 9.64 -18 11 C-17.34 10.34 -16.68 9.68 -16 9 C-16.33 8.38125 -16.66 7.7625 -17 7.125 C-18 5 -18 5 -18 3 C-11.99134482 0.34912271 -6.53154851 -0.13063097 0 0 Z " fill="#6B4817" transform="translate(298,149)"/>
<path d="M0 0 C0.33 0.66 0.66 1.32 1 2 C2.84971696 3.05021103 2.84971696 3.05021103 5 4 C6.33333333 4.66666667 7.66666667 5.33333333 9 6 C9 6.66 9 7.32 9 8 C9.99 8 10.98 8 12 8 C11.67 7.34 11.34 6.68 11 6 C10.960008 4.00039988 10.95653201 1.99952758 11 0 C11.33 0.99 11.66 1.98 12 3 C12.66 3 13.32 3 14 3 C19 8.47619048 19 8.47619048 19 11 C16.36 11.66 13.72 12.32 11 13 C11.825 13.928125 12.65 14.85625 13.5 15.8125 C16 18.625 16 18.625 16 22 C12.30806031 24.46129312 8.28656644 24.81974179 4 24 C0.62448027 21.52461886 -1.07434311 19.11359739 -2.625 15.3125 C-3.73301746 11.77656638 -3.73301746 11.77656638 -7 10 C-7.33 11.32 -7.66 12.64 -8 14 C-8.33 14 -8.66 14 -9 14 C-9 16.97 -9 19.94 -9 23 C-8.01 22.67 -7.02 22.34 -6 22 C-6.33 20.68 -6.66 19.36 -7 18 C-5.68 18.66 -4.36 19.32 -3 20 C-3 22.31 -3 24.62 -3 27 C-1.68 27 -0.36 27 1 27 C1 27.66 1 28.32 1 29 C1.62648437 28.90460938 2.25296875 28.80921875 2.8984375 28.7109375 C3.71570313 28.60007812 4.53296875 28.48921875 5.375 28.375 C6.59316406 28.20097656 6.59316406 28.20097656 7.8359375 28.0234375 C8.55007812 28.01570313 9.26421875 28.00796875 10 28 C10.66 28.66 11.32 29.32 12 30 C4.56046433 30.510334 -1.28079366 30.82975527 -7.51171875 26.38671875 C-9.73569858 24.31450658 -10.90851128 22.55245111 -11.40625 19.546875 C-11.57356518 14.55530553 -11.63117622 10.99542991 -8.3125 7.0625 C-5.71685243 4.4976796 -2.94065965 2.16224974 0 0 Z " fill="#6F4C1E" transform="translate(163,354)"/>
<path d="M0 0 C2.79192205 -0.05380578 5.5828141 -0.09357669 8.375 -0.125 C9.1690625 -0.14175781 9.963125 -0.15851563 10.78125 -0.17578125 C12.85492015 -0.19335473 14.92883241 -0.10335168 17 0 C19.17389442 2.17389442 19.67443673 3.49009014 20.65625 6.359375 C20.95660156 7.22820312 21.25695312 8.09703125 21.56640625 8.9921875 C22.02853516 10.35730469 22.02853516 10.35730469 22.5 11.75 C22.96212891 13.09191406 22.96212891 13.09191406 23.43359375 14.4609375 C24.98156922 18.96534679 26.50279653 23.47844552 28 28 C27.2265625 27.566875 27.2265625 27.566875 26.4375 27.125 C23.37643275 25.71219973 20.25055082 24.8751483 17 24 C17 27.63 17 31.26 17 35 C12.05 35 7.1 35 2 35 C3.125 28.25 3.125 28.25 4.19140625 25.1328125 C4.41376953 24.47539062 4.63613281 23.81796875 4.86523438 23.140625 C5.21038086 22.14289063 5.21038086 22.14289063 5.5625 21.125 C5.79646484 20.43664062 6.03042969 19.74828125 6.27148438 19.0390625 C6.84352499 17.35796355 7.42118456 15.67877837 8 14 C11.65690221 13.25865185 15.31698976 12.59955981 19 12 C18.67 11.278125 18.34 10.55625 18 9.8125 C17 7 17 7 17 2 C12.38 2 7.76 2 3 2 C3.33 4.31 3.66 6.62 4 9 C3.67 8.01 3.34 7.02 3 6 C2.01 5.67 1.02 5.34 0 5 C0 3.35 0 1.7 0 0 Z " fill="#6C4915" transform="translate(289,255)"/>
<path d="M0 0 C6.0648333 -0.07471366 12.12939276 -0.12886656 18.19458008 -0.16479492 C20.25354689 -0.17978857 22.31248227 -0.20019033 24.37133789 -0.22631836 C47.5014967 -0.51229123 47.5014967 -0.51229123 55 3 C57 5 57 5 57 8 C38.33333333 8 19.66666667 8 1 8 C1.020625 7.236875 1.04125 6.47375 1.0625 5.6875 C1.12942841 2.89814214 1.12942841 2.89814214 0 0 Z " fill="#735426" transform="translate(183,128)"/>
<path d="M0 0 C10 0 10 0 13.5625 2.3125 C16.45445475 5.50106549 16.93456373 7.11661042 17.25 11.375 C16.97649964 15.34075524 16.48149447 16.93949016 14 20 C8.83628474 24.44319685 7.4837604 24 0 24 C0 16.08 0 8.16 0 0 Z " fill="#F6F4F2" transform="translate(359,335)"/>
<path d="M0 0 C0.2475 0.53625 0.495 1.0725 0.75 1.625 C4.85187732 9.47191415 4.85187732 9.47191415 12 14 C18.08046765 14.61276031 22.64103101 13.95290128 28 11 C28.66 10.01 29.32 9.02 30 8 C31.98 8.33 33.96 8.66 36 9 C35.43337348 12.40711788 34.45879454 13.87185882 31.8125 16.0625 C31.24144531 16.54847656 30.67039062 17.03445313 30.08203125 17.53515625 C24.55947431 21.42063252 20.22591616 22.52730342 13.625 22.4375 C12.4966272 22.42940308 12.4966272 22.42940308 11.34545898 22.42114258 C5.62754542 22.26401951 1.73725276 21.38375197 -3 18 C-3.66 17.01 -4.32 16.02 -5 15 C-4.01 15 -3.02 15 -2 15 C-1.690625 14.05125 -1.38125 13.1025 -1.0625 12.125 C0 9 0 9 1 7 C0.34 6.67 -0.32 6.34 -1 6 C-0.67 4.02 -0.34 2.04 0 0 Z " fill="#705023" transform="translate(229,362)"/>
<path d="M0 0 C3.04897676 1.80950143 4.75552415 4.19575661 6.796875 7.06640625 C4.81119792 6.51302083 2.82552083 5.95963542 0.83984375 5.40625 C-1.39556659 4.87076808 -1.39556659 4.87076808 -4.203125 6.06640625 C-3.873125 7.05640625 -3.543125 8.04640625 -3.203125 9.06640625 C-4.193125 8.73640625 -5.183125 8.40640625 -6.203125 8.06640625 C-13.83831909 7.29478493 -13.83831909 7.29478493 -20.765625 10.00390625 C-21.57 10.68453125 -22.374375 11.36515625 -23.203125 12.06640625 C-24.193125 12.56140625 -24.193125 12.56140625 -25.203125 13.06640625 C-25.203125 12.40640625 -25.203125 11.74640625 -25.203125 11.06640625 C-26.193125 10.73640625 -27.183125 10.40640625 -28.203125 10.06640625 C-27.873125 9.40640625 -27.543125 8.74640625 -27.203125 8.06640625 C-27.863125 7.40640625 -28.523125 6.74640625 -29.203125 6.06640625 C-28.873125 5.07640625 -28.543125 4.08640625 -28.203125 3.06640625 C-25.85993744 1.9177849 -23.63727519 0.96346367 -21.203125 0.06640625 C-20.254375 -0.32546875 -19.305625 -0.71734375 -18.328125 -1.12109375 C-11.99994806 -2.76641975 -6.06339484 -2.51024546 0 0 Z " fill="#6C4814" transform="translate(372.203125,136.93359375)"/>
<path d="M0 0 C0.99 0.66 1.98 1.32 3 2 C3 2.66 3 3.32 3 4 C3.56170898 3.83250244 4.12341797 3.66500488 4.70214844 3.49243164 C7.18290882 2.96080248 9.23604506 2.97515645 11.765625 3.12109375 C12.65507812 3.16943359 13.54453125 3.21777344 14.4609375 3.26757812 C15.38132812 3.32365234 16.30171875 3.37972656 17.25 3.4375 C18.18585938 3.48970703 19.12171875 3.54191406 20.0859375 3.59570312 C22.39098887 3.72506825 24.69557289 3.86002034 27 4 C27 4.33 27 4.66 27 5 C17.1 5.495 17.1 5.495 7 6 C6.01 9.3 5.02 12.6 4 16 C5.98 16.33 7.96 16.66 10 17 C10 18.65 10 20.3 10 22 C3.07 22 -3.86 22 -11 22 C-11 20.35 -11 18.7 -11 17 C-10.236875 16.95875 -9.47375 16.9175 -8.6875 16.875 C-5.79703196 16.24078896 -5.79703196 16.24078896 -4.375 13.5625 C-2.65581755 9.10825456 -1.2810514 4.59724829 0 0 Z " fill="#6D4A1A" transform="translate(281,291)"/>
<path d="M0 0 C0.77943466 0.00222061 1.55886932 0.00444122 2.36192322 0.00672913 C3.68317955 0.00684242 3.68317955 0.00684242 5.03112793 0.00695801 C5.98841293 0.01211929 6.94569794 0.01728058 7.93199158 0.02259827 C9.39480812 0.02472069 9.39480812 0.02472069 10.88717651 0.02688599 C14.01542675 0.03250319 17.14360656 0.04505859 20.27183533 0.05775452 C22.38706867 0.0627673 24.50230313 0.06733059 26.61753845 0.07142639 C31.8148314 0.08247821 37.0120714 0.09975436 42.20933533 0.12025452 C42.20933533 5.40025452 42.20933533 10.68025452 42.20933533 16.12025452 C40.22933533 16.12025452 38.24933533 16.12025452 36.20933533 16.12025452 C35.54933533 13.48025452 34.88933533 10.84025452 34.20933533 8.12025452 C28.59933533 7.79025452 22.98933533 7.46025452 17.20933533 7.12025452 C17.20933533 6.79025452 17.20933533 6.46025452 17.20933533 6.12025452 C21.49933533 6.12025452 25.78933533 6.12025452 30.20933533 6.12025452 C30.20933533 5.13025452 30.20933533 4.14025452 30.20933533 3.12025452 C21.29933533 2.79025452 12.38933533 2.46025452 3.20933533 2.12025452 C2.87933533 2.78025452 2.54933533 3.44025452 2.20933533 4.12025452 C1.87933533 3.79025452 1.54933533 3.46025452 1.20933533 3.12025452 C1.20933533 4.11025452 1.20933533 5.10025452 1.20933533 6.12025452 C-0.11066467 6.12025452 -1.43066467 6.12025452 -2.79066467 6.12025452 C-2.83338567 4.45413547 -2.83130299 2.78642567 -2.79066467 1.12025452 C-1.79066467 0.12025452 -1.79066467 0.12025452 0 0 Z " fill="#6E4D1E" transform="translate(345.79066467285156,254.87974548339844)"/>
<path d="M0 0 C0.66 0 1.32 0 2 0 C3.53851766 1.71951974 5.00731759 3.50187497 6.4375 5.3125 C9.43178731 9.15470832 9.43178731 9.15470832 12.78515625 12.66796875 C14 14 14 14 14 17 C10.29905919 19.46729387 6.29541235 19.7995421 2 19 C-1 17.0625 -1 17.0625 -3 14 C-3.83707946 9.54899096 -3.47730746 6.06309388 -1.625 1.9375 C-1.08875 1.298125 -0.5525 0.65875 0 0 Z " fill="#F8F7F5" transform="translate(165,359)"/>
<path d="M0 0 C7.62951555 -0.34855655 13.92444501 -0.0017506 21 3 C21 2.34 21 1.68 21 1 C22.32 1 23.64 1 25 1 C25 6.61 25 12.22 25 18 C23.35 18 21.7 18 20 18 C19.78085937 17.45730469 19.56171875 16.91460937 19.3359375 16.35546875 C17.66799546 12.59242879 16.60622938 10.40854588 13.125 8.0625 C10.06757391 7.02297513 7.20356773 6.38137711 4 6 C5.32 5.67 6.64 5.34 8 5 C8 3.68 8 2.36 8 1 C5.36 1 2.72 1 0 1 C0 0.67 0 0.34 0 0 Z " fill="#6E4D1F" transform="translate(238,328)"/>
<path d="M0 0 C0 3 0 3 -2 6 C-2.70812814 8.32108669 -3.38024152 10.65377147 -4 13 C-4.66 13 -5.32 13 -6 13 C-5.938125 14.8253125 -5.938125 14.8253125 -5.875 16.6875 C-5.88488946 22.3047121 -7.83509199 26.38450915 -11 31 C-11.66 31 -12.32 31 -13 31 C-13.185625 31.9590625 -13.185625 31.9590625 -13.375 32.9375 C-13.58125 33.618125 -13.7875 34.29875 -14 35 C-14.99 35.495 -14.99 35.495 -16 36 C-19.07692308 31.69230769 -19.07692308 31.69230769 -18.6875 28.1875 C-18.460625 27.465625 -18.23375 26.74375 -18 26 C-17.34 26 -16.68 26 -16 26 C-15.71125 24.80375 -15.4225 23.6075 -15.125 22.375 C-12.47053943 14.28276098 -6.25680784 5.72168611 0 0 Z M-8 18 C-7 20 -7 20 -7 20 Z " fill="#6E4D1A" transform="translate(282,84)"/>
<path d="M0 0 C5.31568828 3.94389776 7.59974013 9.11534594 8.9375 15.4375 C9.15697369 18.79031086 9.12651612 22.08421394 8.9375 25.4375 C7.9475 25.4375 6.9575 25.4375 5.9375 25.4375 C5.6075 22.7975 5.2775 20.1575 4.9375 17.4375 C3.9475 17.4375 2.9575 17.4375 1.9375 17.4375 C0.5078125 15.8984375 0.5078125 15.8984375 -0.9375 13.8125 C-3.50482661 10.20540612 -6.19563142 6.81028656 -9.0625 3.4375 C-6.40626311 0.78126311 -3.82280234 -1.04258246 0 0 Z " fill="#6D4A18" transform="translate(244.0625,102.5625)"/>
<path d="M0 0 C0.66 1.32 1.32 2.64 2 4 C1.34 4 0.68 4 0 4 C0.33 5.32 0.66 6.64 1 8 C0.01 8.495 0.01 8.495 -1 9 C-1 10.65 -1 12.3 -1 14 C-1.969375 14.268125 -2.93875 14.53625 -3.9375 14.8125 C-4.948125 15.204375 -5.95875 15.59625 -7 16 C-7.33 16.99 -7.66 17.98 -8 19 C-8.33 19.99 -8.66 20.98 -9 22 C-5.535 21.505 -5.535 21.505 -2 21 C-2 20.34 -2 19.68 -2 19 C-1.34 19 -0.68 19 0 19 C-3.2721597 27.3005633 -13.9543672 31.76541522 -21.58984375 35.28515625 C-24.21295708 36.06316231 -25.46673266 35.93454642 -28 35 C-24.14376321 30.17970402 -24.14376321 30.17970402 -20.88671875 29.66796875 C-18.92143786 29.6854224 -16.95833873 29.83403909 -15 30 C-14.67 29.01 -14.34 28.02 -14 27 C-13.67 26.67 -13.34 26.34 -13 26 C-15.92824652 25.02391783 -17.95613276 24.91773332 -21 25 C-19.33784732 23.66104368 -17.67036393 22.32869858 -16 21 C-14.9171875 20.13375 -14.9171875 20.13375 -13.8125 19.25 C-12 18 -12 18 -10 18 C-10 17.34 -10 16.68 -10 16 C-9.34 16 -8.68 16 -8 16 C-8 15.34 -8 14.68 -8 14 C-7.34 14 -6.68 14 -6 14 C-5.7525 13.360625 -5.505 12.72125 -5.25 12.0625 C-3.59188428 8.00011649 -1.7964416 4.00275094 0 0 Z " fill="#704F20" transform="translate(373,161)"/>
<path d="M0 0 C0.66 0 1.32 0 2 0 C3.1721449 2.95619219 4.33677476 5.91528789 5.5 8.875 C5.83386719 9.71675781 6.16773438 10.55851562 6.51171875 11.42578125 C6.98544922 12.63427734 6.98544922 12.63427734 7.46875 13.8671875 C7.76201172 14.61081543 8.05527344 15.35444336 8.35742188 16.12060547 C9 18 9 18 9 20 C4.05 20 -0.9 20 -6 20 C-5.18498496 15.10990978 -4.12996891 11.22504371 -2.4375 6.625 C-2.20353516 5.98433594 -1.96957031 5.34367187 -1.72851562 4.68359375 C-1.15700381 3.1206839 -0.57915771 1.56009273 0 0 Z " fill="#F7F6F4" transform="translate(297,270)"/>
<path d="M0 0 C15.18 0 30.36 0 46 0 C46.64774951 3.88649705 47.13802817 6.98873237 47.125 10.8125 C47.12886719 11.96685547 47.12886719 11.96685547 47.1328125 13.14453125 C47 15 47 15 46 16 C44.33382885 16.04063832 42.66611905 16.042721 41 16 C40.01 13.36 39.02 10.72 38 8 C38.99 8 39.98 8 41 8 C41.66 9.65 42.32 11.3 43 13 C43.33 13 43.66 13 44 13 C44 9.37 44 5.74 44 2 C30.8 2 17.6 2 4 2 C4.33 2.99 4.66 3.98 5 5 C3.125 5.625 3.125 5.625 1 6 C0.34 5.34 -0.32 4.68 -1 4 C-0.67 2.68 -0.34 1.36 0 0 Z " fill="#896F4D" transform="translate(208,255)"/>
<path d="M0 0 C4.64475959 -0.04944066 9.28936596 -0.08573863 13.93432617 -0.10986328 C15.51443144 -0.11992041 17.0945181 -0.13356785 18.67456055 -0.15087891 C20.9458475 -0.17514022 23.21688836 -0.18648582 25.48828125 -0.1953125 C26.54780754 -0.21079636 26.54780754 -0.21079636 27.6287384 -0.22659302 C31.32197792 -0.22743775 32.83919216 -0.10720523 36 2 C33.69 2 31.38 2 29 2 C29.75150023 5.27773504 29.75150023 5.27773504 33 7 C32.34 7.66 31.68 8.32 31 9 C29.02 8.01 27.04 7.02 25 6 C25 5.01 25 4.02 25 3 C18.73 2.67 12.46 2.34 6 2 C6.33 2.66 6.66 3.32 7 4 C7.09447203 5.4449044 7.1279399 6.89405222 7.12939453 8.34204102 C7.13254669 9.2395961 7.13569885 10.13715118 7.13894653 11.06190491 C7.1369223 12.03276535 7.13489807 13.00362579 7.1328125 14.00390625 C7.13376923 14.9975267 7.13472595 15.99114716 7.13571167 17.01487732 C7.13639286 19.11725935 7.1345428 21.21964348 7.13037109 23.32202148 C7.12501638 26.55261928 7.13032105 29.78307839 7.13671875 33.01367188 C7.13605807 35.05208364 7.13477711 37.09049532 7.1328125 39.12890625 C7.13483673 40.10179092 7.13686096 41.0746756 7.13894653 42.07704163 C7.13579437 42.97144455 7.13264221 43.86584747 7.12939453 44.78735352 C7.12820114 45.97410423 7.12820114 45.97410423 7.12698364 47.18482971 C7 49 7 49 6 50 C4.33382885 50.04063832 2.66611905 50.042721 1 50 C2.32 49.34 3.64 48.68 5 48 C5.12350083 42.21598128 5.21429191 36.4327279 5.2746582 30.64770508 C5.29981914 28.67947016 5.33395164 26.71132883 5.37719727 24.7434082 C5.4377807 21.91594381 5.46619307 19.08971318 5.48828125 16.26171875 C5.51408768 15.38037766 5.5398941 14.49903656 5.56648254 13.59098816 C5.567544 11.28449361 5.54342296 9.24222734 5 7 C2.57046518 5.12729831 2.57046518 5.12729831 0 4 C0 2.68 0 1.36 0 0 Z " fill="#826844" transform="translate(341,329)"/>
<path d="M0 0 C0.6875 1.625 0.6875 1.625 1 4 C-0.3988758 7.26404354 -2.03033187 10.04549781 -4 13 C-3.34 13 -2.68 13 -2 13 C-2 12.34 -2 11.68 -2 11 C-1.34 11 -0.68 11 0 11 C0 10.34 0 9.68 0 9 C0.99 9.33 1.98 9.66 3 10 C-3.8936605 17.27664164 -9.1820035 17.68755458 -19 18 C-24.77863876 17.72038845 -28.2098475 16.03050464 -33 13 C-32.34 12.67 -31.68 12.34 -31 12 C-30.113125 12.309375 -29.22625 12.61875 -28.3125 12.9375 C-24.70117046 14.09585098 -21.7680043 14.15072017 -18 14 C-18 13.01 -18 12.02 -18 11 C-17.41992188 10.96261719 -16.83984375 10.92523438 -16.2421875 10.88671875 C-11.26286958 10.46766724 -7.16943681 9.97816915 -3 7 C-1.64529069 4.69596788 -0.86777496 2.55511515 0 0 Z " fill="#725126" transform="translate(319,367)"/>
<path d="M0 0 C1.88133167 2.8219975 3.24361182 5.56316589 4.6875 8.625 C7.16338087 13.65603871 9.97267591 17.88151647 13.58203125 22.16015625 C15 24 15 24 16 27 C14.68 27.33 13.36 27.66 12 28 C11.87625 27.195625 11.7525 26.39125 11.625 25.5625 C11.41875 24.716875 11.2125 23.87125 11 23 C10.34 22.67 9.68 22.34 9 22 C8.67 21.01 8.34 20.02 8 19 C7.34 18.67 6.68 18.34 6 18 C5.34 19.98 4.68 21.96 4 24 C0.75355018 20.22087327 -1.61520253 16.25819489 -3.8125 11.8125 C-4.13669922 11.18408203 -4.46089844 10.55566406 -4.79492188 9.90820312 C-5.59635514 8.30362046 -6.30613918 6.65394619 -7 5 C-6.67 4.34 -6.34 3.68 -6 3 C-3 8.75 -3 8.75 -3 11 C-2.34 11 -1.68 11 -1 11 C-1.020625 10.113125 -1.04125 9.22625 -1.0625 8.3125 C-1.00713781 5.37830369 -0.6694266 2.84506304 0 0 Z " fill="#6F4E21" transform="translate(194,177)"/>
<path d="M0 0 C1.32 0 2.64 0 4 0 C4 5.28 4 10.56 4 16 C-11.18 16 -26.36 16 -42 16 C-42 15.67 -42 15.34 -42 15 C-24.675 14.505 -24.675 14.505 -7 14 C-7 13.01 -7 12.02 -7 11 C-6.34 11 -5.68 11 -5 11 C-4.71125 10.21625 -4.4225 9.4325 -4.125 8.625 C-3 6 -3 6 -1 4 C-0.3574765 1.93125966 -0.3574765 1.93125966 0 0 Z " fill="#66410E" transform="translate(190,297)"/>
<path d="M0 0 C0.68958298 -0.00511093 1.37916595 -0.01022186 2.08964539 -0.01548767 C4.37430442 -0.02941417 6.65866288 -0.02842484 8.94335938 -0.02612305 C10.52754835 -0.03000797 12.11173628 -0.03434222 13.69592285 -0.03910828 C17.01818212 -0.04657681 20.34033513 -0.04627442 23.66259766 -0.04101562 C27.92680677 -0.03521647 32.19058218 -0.05215936 36.45471954 -0.0753603 C39.72660885 -0.0900678 42.99839294 -0.0909735 46.27030945 -0.08785057 C47.84283814 -0.08836517 49.4153725 -0.09362881 50.98786926 -0.10366249 C53.1836088 -0.11595404 55.37849363 -0.10928046 57.57421875 -0.09765625 C58.82505249 -0.09828568 60.07588623 -0.0989151 61.36462402 -0.0995636 C62.32904419 0.0239296 63.29346436 0.14742279 64.28710938 0.2746582 C65.27710938 1.7596582 65.27710938 1.7596582 66.28710938 3.2746582 C41.86710937 3.2746582 17.44710937 3.2746582 -7.71289062 3.2746582 C-7.71289062 4.9246582 -7.71289062 6.5746582 -7.71289062 8.2746582 C-8.04289062 8.2746582 -8.37289063 8.2746582 -8.71289062 8.2746582 C-8.83789062 5.3996582 -8.83789062 5.3996582 -8.71289062 2.2746582 C-5.87264025 -0.56559217 -3.97882808 0.01465584 0 0 Z " fill="#8C765A" transform="translate(278.712890625,127.725341796875)"/>
<path d="M0 0 C2.53782996 0.98664076 3.75924437 1.56077199 5.08984375 3.98828125 C5.36957031 4.75527344 5.64929688 5.52226562 5.9375 6.3125 C7.65524326 10.46315589 9.35089004 13.21972574 13 16 C16.18150892 16.87989974 16.18150892 16.87989974 19 17 C19.33 17.99 19.66 18.98 20 20 C16.04 20 12.08 20 8 20 C8 19.34 8 18.68 8 18 C6.68 18 5.36 18 4 18 C3.87625 16.865625 3.7525 15.73125 3.625 14.5625 C3.41875 13.386875 3.2125 12.21125 3 11 C2.34 10.67 1.68 10.34 1 10 C1.33 11.32 1.66 12.64 2 14 C0.68 14 -0.64 14 -2 14 C-3.20272819 11.59454362 -3.10071472 10.05003047 -3.0625 7.375 C-3.05347656 6.55773437 -3.04445312 5.74046875 -3.03515625 4.8984375 C-3.02355469 4.27195312 -3.01195312 3.64546875 -3 3 C-2.34 3 -1.68 3 -1 3 C-0.67 2.01 -0.34 1.02 0 0 Z " fill="#6C4712" transform="translate(156,363)"/>
<path d="M0 0 C1.65 0 3.3 0 5 0 C5 5.61 5 11.22 5 17 C3.35 17 1.7 17 0 17 C-2.1875 14.125 -2.1875 14.125 -4 11 C-4.66 10.34 -5.32 9.68 -6 9 C-6 8.01 -6 7.02 -6 6 C-8.64 6 -11.28 6 -14 6 C-14 5.67 -14 5.34 -14 5 C-13.32453125 4.97421875 -12.6490625 4.9484375 -11.953125 4.921875 C-6.32974473 4.73302414 -6.32974473 4.73302414 -1.6875 1.9375 C-1.130625 1.298125 -0.57375 0.65875 0 0 Z " fill="#6C491A" transform="translate(376,277)"/>
<path d="M0 0 C2.03290685 1.68221672 2.91799577 2.68023852 3.58203125 5.26953125 C3.65808594 6.10871094 3.73414063 6.94789063 3.8125 7.8125 C3.90144531 8.64394531 3.99039062 9.47539062 4.08203125 10.33203125 C4 13 4 13 2 19 C6.95 19 11.9 19 17 19 C17 19.33 17 19.66 17 20 C10.66666667 20 4.33333333 20 -2 20 C-2.66 19.34 -3.32 18.68 -4 18 C-4.99 18.66 -5.98 19.32 -7 20 C-5.07443364 13.14381674 -2.7527517 6.56747868 0 0 Z " fill="#725227" transform="translate(289,271)"/>
<path d="M0 0 C3.5 -0.375 3.5 -0.375 7 0 C9 3 9 3 8.875 6.4375 C7.9392619 10.24729086 7.0011414 11.57972468 4 14 C0.83884224 12.63016497 0.0072908 12.0109362 -2 9 C-2.33957563 4.92509248 -2.31332486 3.46998729 0 0 Z " fill="#F2EFEC" transform="translate(169,337)"/>
<path d="M0 0 C1.65 0 3.3 0 5 0 C5 0.66 5 1.32 5 2 C4.38125 2.061875 3.7625 2.12375 3.125 2.1875 C2.42375 2.455625 1.7225 2.72375 1 3 C0.32558869 4.6635479 -0.3400321 6.33066942 -1 8 C-3.625 10.3125 -3.625 10.3125 -6 12 C-5.34 12.33 -4.68 12.66 -4 13 C-4 13.66 -4 14.32 -4 15 C-10.93 15 -17.86 15 -25 15 C-25 13.68 -25 12.36 -25 11 C-23.98679688 10.96261719 -22.97359375 10.92523438 -21.9296875 10.88671875 C-20.57809061 10.82101612 -19.22652971 10.75457029 -17.875 10.6875 C-17.20984375 10.66494141 -16.5446875 10.64238281 -15.859375 10.61914062 C-11.23696503 10.36989303 -7.9102924 9.48418576 -4 7 C-2.49439252 5.25549662 -2.49439252 5.25549662 -1.625 3.3125 C-1.08875 2.219375 -0.5525 1.12625 0 0 Z " fill="#714B19" transform="translate(252,297)"/>
<path d="M0 0 C1.97830117 1.88706884 3.40362248 3.75509411 5 6 C3.01432292 5.44661458 1.02864583 4.89322917 -0.95703125 4.33984375 C-3.19244159 3.80436183 -3.19244159 3.80436183 -6 5 C-5.67 5.99 -5.34 6.98 -5 8 C-10.94 7.01 -10.94 7.01 -17 6 C-15.68 5.34 -14.36 4.68 -13 4 C-12.01 2.68 -11.02 1.36 -10 0 C-14.29 0 -18.58 0 -23 0 C-17.39946902 -5.60053098 -6.28452361 -3.72972814 0 0 Z " fill="#73552B" transform="translate(374,138)"/>
<path d="M0 0 C1.299375 -0.03867187 1.299375 -0.03867187 2.625 -0.078125 C5.42903194 0.30927415 6.26286782 1.07858478 8 3.25 C7.34 3.25 6.68 3.25 6 3.25 C5.67 4.24 5.34 5.23 5 6.25 C2.03 5.92 -0.94 5.59 -4 5.25 C-4.33 6.24 -4.66 7.23 -5 8.25 C-5.66 7.59 -6.32 6.93 -7 6.25 C-9.0995533 7.40684329 -9.0995533 7.40684329 -11 9.25 C-11.33425735 11.87625139 -11.33425735 11.87625139 -11 14.25 C-12.32 14.25 -13.64 14.25 -15 14.25 C-14.74537391 9.03016506 -12.88742925 6.44348103 -9.5703125 2.66796875 C-6.70458488 0.08025948 -3.68887742 0.06587281 0 0 Z " fill="#6E4A1D" transform="translate(173,331.75)"/>
<path d="M0 0 C0.33 0 0.66 0 1 0 C1 8.25 1 16.5 1 25 C2.65 24.67 4.3 24.34 6 24 C4.97137215 29.44567686 3.75385216 34.11817117 1 39 C-1.96364386 35.96616458 -2.34524509 33.55251261 -2.3125 29.36523438 C-2.2815625 28.34913086 -2.2815625 28.34913086 -2.25 27.3125 C-2.24484375 26.62349609 -2.2396875 25.93449219 -2.234375 25.22460938 C-2.15461101 20.15461101 -2.15461101 20.15461101 -1 19 C-0.84379445 17.58672053 -0.74943827 16.1664541 -0.68359375 14.74609375 C-0.64169922 13.89208984 -0.59980469 13.03808594 -0.55664062 12.15820312 C-0.51732422 11.26037109 -0.47800781 10.36253906 -0.4375 9.4375 C-0.39431641 8.53580078 -0.35113281 7.63410156 -0.30664062 6.70507812 C-0.20021858 4.47021515 -0.09820012 2.23523692 0 0 Z " fill="#6B4A1E" transform="translate(256,164)"/>
<path d="M0 0 C0.66 0 1.32 0 2 0 C2.27006967 6.31610833 2.49988112 12.6327676 2.7019043 18.95141602 C2.77534031 21.10018943 2.85794988 23.2486699 2.94995117 25.39672852 C3.08069986 28.48682733 3.17828802 31.57648221 3.26953125 34.66796875 C3.31721146 35.62648239 3.36489166 36.58499603 3.41401672 37.57255554 C3.51967523 42.23720502 3.52352278 44.29298909 0.6706543 48.14575195 C-2 50 -2 50 -5 50 C-5 48.68 -5 47.36 -5 46 C-3.35 46 -1.7 46 0 46 C0 30.82 0 15.64 0 0 Z " fill="#7E6444" transform="translate(349,262)"/>
<path d="M0 0 C2.93225176 3.24862629 3.3657394 5.35305962 3.25 9.6875 C3.23453125 10.66074219 3.2190625 11.63398438 3.203125 12.63671875 C3 15 3 15 2 16 C1.60333773 18.18019479 1.25684763 20.3696463 0.9375 22.5625 C0.76089844 23.76003906 0.58429688 24.95757812 0.40234375 26.19140625 C0.26957031 27.11824219 0.13679688 28.04507813 0 29 C-0.33 29 -0.66 29 -1 29 C-0.85721774 26.3539713 -0.71083736 23.70821857 -0.5625 21.0625 C-0.52318359 20.32708984 -0.48386719 19.59167969 -0.44335938 18.83398438 C-0.40146484 18.09599609 -0.35957031 17.35800781 -0.31640625 16.59765625 C-0.27974854 15.93258057 -0.24309082 15.26750488 -0.20532227 14.58227539 C0.10234168 10.71287993 0.57134814 6.85786676 1 3 C-20.78 3 -42.56 3 -65 3 C-65 2.67 -65 2.34 -65 2 C-43.55 2 -22.1 2 0 2 C0 1.34 0 0.68 0 0 Z " fill="#6C4E24" transform="translate(336,133)"/>
<path d="M0 0 C2 3 2 3 1.5 5.5625 C1.335 6.366875 1.17 7.17125 1 8 C1.66 8.66 2.32 9.32 3 10 C1.2126038 11.33905267 -0.58004953 12.67109066 -2.375 14 C-3.37273437 14.7425 -4.37046875 15.485 -5.3984375 16.25 C-8 18 -8 18 -10 18 C-10 17.01 -10 16.02 -10 15 C-8.68 15 -7.36 15 -6 15 C-6.33 13.35 -6.66 11.7 -7 10 C-8.98 10.66 -10.96 11.32 -13 12 C-9.7498074 8.61438271 -6.25061222 5.55850818 -2.70703125 2.48828125 C-1.7832102 1.68284459 -0.86665262 0.86665262 0 0 Z " fill="#6F5225" transform="translate(316,202)"/>
<path d="M0 0 C1.24546405 2.49092811 0.7767578 3.41080733 0 6 C0.66 6 1.32 6 2 6 C2.33 5.34 2.66 4.68 3 4 C4 5 4 5 4.09765625 7.50390625 C4.08605469 8.51324219 4.07445312 9.52257812 4.0625 10.5625 C4.05347656 11.57441406 4.04445312 12.58632812 4.03515625 13.62890625 C4.02355469 14.41136719 4.01195312 15.19382813 4 16 C2.02 16.99 2.02 16.99 0 18 C0 18.66 0 19.32 0 20 C-0.99 19.67 -1.98 19.34 -3 19 C-3.08071788 16.20775927 -3.14035408 13.41783434 -3.1875 10.625 C-3.21263672 9.8309375 -3.23777344 9.036875 -3.26367188 8.21875 C-3.29004405 6.14413852 -3.15486462 4.06899135 -3 2 C-2.01 1.34 -1.02 0.68 0 0 Z " fill="#694411" transform="translate(184,130)"/>
<path d="M0 0 C-0.3125 1.875 -0.3125 1.875 -1 4 C-1.99 4.66 -2.98 5.32 -4 6 C-4.72382467 8.05925139 -4.72382467 8.05925139 -5 10 C-5.33 10 -5.66 10 -6 10 C-6 12.97 -6 15.94 -6 19 C-5.01 18.67 -4.02 18.34 -3 18 C-3.33 16.68 -3.66 15.36 -4 14 C-2.68 14.66 -1.36 15.32 0 16 C0 18.31 0 20.62 0 23 C1.32 23 2.64 23 4 23 C4 23.66 4 24.32 4 25 C4.62648437 24.90460938 5.25296875 24.80921875 5.8984375 24.7109375 C6.71570313 24.60007812 7.53296875 24.48921875 8.375 24.375 C9.59316406 24.20097656 9.59316406 24.20097656 10.8359375 24.0234375 C11.55007812 24.01570313 12.26421875 24.00796875 13 24 C13.66 24.66 14.32 25.32 15 26 C7.56046433 26.510334 1.71920634 26.82975527 -4.51171875 22.38671875 C-6.73569858 20.31450658 -7.90851128 18.55245111 -8.40625 15.546875 C-8.57977809 10.36995366 -8.54723311 6.894139 -5.125 2.8125 C-2.39812646 0 -2.39812646 0 0 0 Z " fill="#6F4F23" transform="translate(160,358)"/>
<path d="M0 0 C0.93423645 3.01031744 1.04449911 3.86650268 0 7 C-0.41598327 14.61346133 -0.33156102 21.7138718 2 29 C3.32 29.33 4.64 29.66 6 30 C5.25130208 31.72526042 4.50260417 33.45052083 3.75390625 35.17578125 C3.10038058 36.75711021 2.54108198 38.37675406 2 40 C0.35 40 -1.3 40 -3 40 C-2.649375 38.88625 -2.29875 37.7725 -1.9375 36.625 C-0.4345847 30.68742616 -1.07532992 24.77401024 -3 19 C-3.59341741 11.9360504 -2.92106381 6.45068258 0 0 Z " fill="#755935" transform="translate(260,90)"/>
<path d="M0 0 C0.33 0 0.66 0 1 0 C1 14.52 1 29.04 1 44 C12.9894349 43.60633906 12.9894349 43.60633906 20 41 C21.54069303 39.11361539 21.54069303 39.11361539 22.375 36.875 C22.69210938 36.15054688 23.00921875 35.42609375 23.3359375 34.6796875 C23.55507812 34.12539063 23.77421875 33.57109375 24 33 C25.98 33 27.96 33 30 33 C29.67 34.32 29.34 35.64 29 37 C29 36.01 29 35.02 29 34 C27.68 34 26.36 34 25 34 C25 35.65 25 37.3 25 39 C23.515 39.495 23.515 39.495 22 40 C21.01 42.475 21.01 42.475 20 45 C13.4 45 6.8 45 0 45 C0 30.15 0 15.3 0 0 Z " fill="#866D4C" transform="translate(165,263)"/>
<path d="M0 0 C0.66 0.66 1.32 1.32 2 2 C1.79905928 5.06434601 1.46115301 7.97077473 1 11 C0.82855469 12.14984375 0.65710938 13.2996875 0.48046875 14.484375 C-0.00115676 17.65825246 -0.49530328 20.82972058 -1 24 C-1.99 24 -2.98 24 -4 24 C-4.33 18.06 -4.66 12.12 -5 6 C-4.34 5.67 -3.68 5.34 -3 5 C-2.67 4.01 -2.34 3.02 -2 2 C-1.34 2 -0.68 2 0 2 C0 1.34 0 0.68 0 0 Z " fill="#6B4717" transform="translate(259,128)"/>
<path d="M0 0 C2.97 0.33 5.94 0.66 9 1 C9.625 3.375 9.625 3.375 10 6 C9.34 6.66 8.68 7.32 8 8 C9.32 8.66 10.64 9.32 12 10 C11.67 10.99 11.34 11.98 11 13 C9.68 13 8.36 13 7 13 C5.31301918 13.61344757 3.64034193 14.27095914 2 15 C1.67 14.01 1.34 13.02 1 12 C-0.98 12 -2.96 12 -5 12 C-5.33 11.34 -5.66 10.68 -6 10 C-0.555 9.01 -0.555 9.01 5 8 C3.38731308 5.28775382 1.75098126 2.62647188 0 0 Z " fill="#6C4B1A" transform="translate(174,368)"/>
<path d="M0 0 C0.77943466 0.00222061 1.55886932 0.00444122 2.36192322 0.00672913 C3.68317955 0.00684242 3.68317955 0.00684242 5.03112793 0.00695801 C5.98841293 0.01211929 6.94569794 0.01728058 7.93199158 0.02259827 C9.39480812 0.02472069 9.39480812 0.02472069 10.88717651 0.02688599 C14.01542675 0.03250319 17.14360656 0.04505859 20.27183533 0.05775452 C22.38706867 0.0627673 24.50230313 0.06733059 26.61753845 0.07142639 C31.81482829 0.0824782 37.01207678 0.09923305 42.20933533 0.12025452 C42.20933533 0.45025452 42.20933533 0.78025452 42.20933533 1.12025452 C33.63008231 2.10330547 25.15069976 2.24090653 16.52183533 2.18275452 C15.23599548 2.1782428 13.95015564 2.17373108 12.62535095 2.16908264 C9.4866288 2.15741453 6.34800805 2.14104467 3.20933533 2.12025452 C2.87933533 2.78025452 2.54933533 3.44025452 2.20933533 4.12025452 C1.87933533 3.79025452 1.54933533 3.46025452 1.20933533 3.12025452 C1.20933533 4.11025452 1.20933533 5.10025452 1.20933533 6.12025452 C-0.11066467 6.12025452 -1.43066467 6.12025452 -2.79066467 6.12025452 C-2.83338567 4.45413547 -2.83130299 2.78642567 -2.79066467 1.12025452 C-1.79066467 0.12025452 -1.79066467 0.12025452 0 0 Z " fill="#8B724E" transform="translate(345.79066467285156,254.87974548339844)"/>
<path d="M0 0 C-3.43782624 3.43782624 -6.05225826 5.465109 -11 6 C-11.33 5.67 -11.66 5.34 -12 5 C-12.515625 5.804375 -13.03125 6.60875 -13.5625 7.4375 C-16.63205757 10.66447078 -18.64868459 10.74896257 -23 11 C-20.6875 8.5 -20.6875 8.5 -18 6 C-17.01 6 -16.02 6 -15 6 C-14.67 4.35 -14.34 2.7 -14 1 C-4.58997722 -2.81321185 -4.58997722 -2.81321185 0 0 Z " fill="#6B4712" transform="translate(362,187)"/>
<path d="M0 0 C0.91007812 0.00902344 1.82015625 0.01804688 2.7578125 0.02734375 C3.45648438 0.03894531 4.15515625 0.05054688 4.875 0.0625 C3.885 1.5475 3.885 1.5475 2.875 3.0625 C2.215 3.0625 1.555 3.0625 0.875 3.0625 C0.64039063 3.60390625 0.40578125 4.1453125 0.1640625 4.703125 C-1.4833644 7.71841544 -3.55153344 10.17434012 -5.75 12.8125 C-6.97589844 14.28976563 -6.97589844 14.28976563 -8.2265625 15.796875 C-8.85304688 16.54453125 -9.47953125 17.2921875 -10.125 18.0625 C-10.125 13.78000176 -8.65694785 10.26638199 -6.9375 6.375 C-5.82110807 3.95280325 -5.82110807 3.95280325 -7.125 1.0625 C-4.60024538 -0.19987731 -2.81299534 -0.03606404 0 0 Z " fill="#755326" transform="translate(278.125,160.9375)"/>
<path d="M0 0 C1.65 0.99 3.3 1.98 5 3 C2.63707344 5.52588702 1.33537489 6.88820837 -2 8 C-1.13375 8.99 -0.2675 9.98 0.625 11 C2.93857991 13.71666185 5.22413193 16.45089284 7.4375 19.25 C7.95183594 19.89453125 8.46617187 20.5390625 8.99609375 21.203125 C9.32738281 21.79609375 9.65867188 22.3890625 10 23 C9.67 23.99 9.34 24.98 9 26 C7.82750647 24.54634731 6.66216184 23.08692581 5.5 21.625 C4.8503125 20.81289062 4.200625 20.00078125 3.53125 19.1640625 C2 17 2 17 2 15 C1.34 15 0.68 15 0 15 C-2.125 13.125 -2.125 13.125 -4 11 C-4 10.34 -4 9.68 -4 9 C-4.804375 8.71125 -5.60875 8.4225 -6.4375 8.125 C-9 7 -9 7 -10 5 C-8.35 5 -6.7 5 -5 5 C-4.67 4.34 -4.34 3.68 -4 3 C-1.9375 2.375 -1.9375 2.375 0 2 C0 1.34 0 0.68 0 0 Z " fill="#7C5B2F" transform="translate(238,98)"/>
<path d="M0 0 C0.99 0.33 1.98 0.66 3 1 C2.67 2.98 2.34 4.96 2 7 C1.01 7 0.02 7 -1 7 C-1.33 7.99 -1.66 8.98 -2 10 C-3.8253125 10.185625 -3.8253125 10.185625 -5.6875 10.375 C-9.06479059 10.78891306 -11.89756695 11.54573451 -15 13 C-14.25 10.5625 -14.25 10.5625 -13 8 C-10.50523949 6.95381011 -8.73143089 7 -6 7 C-6.33 6.34 -6.66 5.68 -7 5 C-5.90554162 4.13342884 -4.79902219 3.28207276 -3.6875 2.4375 C-3.07261719 1.96183594 -2.45773437 1.48617187 -1.82421875 0.99609375 C-1.22222656 0.66738281 -0.62023437 0.33867187 0 0 Z " fill="#6A4611" transform="translate(276,173)"/>
<path d="M0 0 C4.95 0.33 9.9 0.66 15 1 C15.33 2.32 15.66 3.64 16 5 C12.55389094 6.72305453 8.77537825 6.379435 5 6 C1.4375 4.5 1.4375 4.5 -1 3 C-0.67 2.01 -0.34 1.02 0 0 Z " fill="#6C4815" transform="translate(237,378)"/>
<path d="M0 0 C0.66 0.33 1.32 0.66 2 1 C1.67 1.66 1.34 2.32 1 3 C1.78375 2.79375 2.5675 2.5875 3.375 2.375 C4.674375 2.189375 4.674375 2.189375 6 2 C8 4 8 4 8.1953125 5.9453125 C8.13020833 7.96354167 8.06510417 9.98177083 8 12 C2.93982644 11.5535141 0.56694486 9.404811 -3 6 C-3.33 5.01 -3.66 4.02 -4 3 C-2.68 2.01 -1.36 1.02 0 0 Z " fill="#6B450D" transform="translate(167,350)"/>
<path d="M0 0 C0.66 1.32 1.32 2.64 2 4 C1.34 4 0.68 4 0 4 C0.33 5.32 0.66 6.64 1 8 C0.01 8.495 0.01 8.495 -1 9 C-1 10.65 -1 12.3 -1 14 C-1.969375 14.268125 -2.93875 14.53625 -3.9375 14.8125 C-4.948125 15.204375 -5.95875 15.59625 -7 16 C-7.33 16.99 -7.66 17.98 -8 19 C-9.671875 20.60546875 -9.671875 20.60546875 -11.75 22.1875 C-12.42546875 22.71730469 -13.1009375 23.24710938 -13.796875 23.79296875 C-16.39119722 25.21432614 -18.08558073 25.22928124 -21 25 C-19.33784732 23.66104368 -17.67036393 22.32869858 -16 21 C-15.278125 20.4225 -14.55625 19.845 -13.8125 19.25 C-12 18 -12 18 -10 18 C-10 17.34 -10 16.68 -10 16 C-9.34 16 -8.68 16 -8 16 C-8 15.34 -8 14.68 -8 14 C-7.34 14 -6.68 14 -6 14 C-5.7525 13.360625 -5.505 12.72125 -5.25 12.0625 C-3.59188428 8.00011649 -1.7964416 4.00275094 0 0 Z " fill="#6C4C1F" transform="translate(373,161)"/>
<path d="M0 0 C0 3.490642 -0.63864175 4.2292849 -2.625 7 C-5.62417646 11.33607352 -8.12897317 15.82126026 -10.609375 20.46875 C-12.24669302 23.44903673 -14.04630944 26.21974804 -16 29 C-17 26 -17 26 -16.06640625 23.46875 C-11.77721647 15.00177797 -6.96611271 6.57790828 0 0 Z " fill="#E8E2DB" transform="translate(282,84)"/>
<path d="M0 0 C0 3.96 0 7.92 0 12 C-4 14 -4 14 -7 14 C-7.33 12.35 -7.66 10.7 -8 9 C-7.01 9 -6.02 9 -5 9 C-5.33 7.02 -5.66 5.04 -6 3 C-1.125 0 -1.125 0 0 0 Z " fill="#6A4611" transform="translate(167,337)"/>
<path d="M0 0 C5.94 0 11.88 0 18 0 C18 1.65 18 3.3 18 5 C16.35 5.33 14.7 5.66 13 6 C13.66 5.67 14.32 5.34 15 5 C15 4.01 15 3.02 15 2 C11.7 2.33 8.4 2.66 5 3 C4.67 4.32 4.34 5.64 4 7 C1.525 6.01 1.525 6.01 -1 5 C-0.67 3.35 -0.34 1.7 0 0 Z " fill="#7D623C" transform="translate(314,329)"/>
<path d="M0 0 C1.1875 2.5625 1.1875 2.5625 2 5 C1.01 5.33 0.02 5.66 -1 6 C-1.66 5.01 -2.32 4.02 -3 3 C-3.66 3 -4.32 3 -5 3 C-5.268125 3.639375 -5.53625 4.27875 -5.8125 4.9375 C-7 7 -7 7 -10 8 C-10 8.66 -10 9.32 -10 10 C-10.99 10.495 -10.99 10.495 -12 11 C-12 11.99 -12 12.98 -12 14 C-13.32 14 -14.64 14 -16 14 C-13.79102388 7.55715299 -10.02568544 3.79416244 -4.68359375 -0.1796875 C-3 -1 -3 -1 0 0 Z " fill="#705225" transform="translate(281,154)"/>
<path d="M0 0 C0.33 0.66 0.66 1.32 1 2 C0.0625 4.625 0.0625 4.625 -1 7 C1.97 6.34 4.94 5.68 8 5 C3.74772739 9.25227261 -0.68599663 9.91735702 -6.5 10.125 C-7.325 10.08375 -8.15 10.0425 -9 10 C-7.68 8.68 -6.36 7.36 -5 6 C-7.97 6 -10.94 6 -14 6 C-14 5.67 -14 5.34 -14 5 C-12.98679687 4.83564453 -12.98679687 4.83564453 -11.953125 4.66796875 C-10.61507813 4.43013672 -10.61507813 4.43013672 -9.25 4.1875 C-8.36828125 4.03667969 -7.4865625 3.88585937 -6.578125 3.73046875 C-3.8089089 2.94585752 -2.1740599 1.85404641 0 0 Z " fill="#70532B" transform="translate(373,354)"/>
<path d="M0 0 C4.62 0 9.24 0 14 0 C13.67 1.32 13.34 2.64 13 4 C11.68 4 10.36 4 9 4 C8.34 5.32 7.68 6.64 7 8 C6.67 7.01 6.34 6.02 6 5 C5.01 5.33 4.02 5.66 3 6 C3 4.35 3 2.7 3 1 C2.01 0.67 1.02 0.34 0 0 Z " fill="#6C4618" transform="translate(188,353)"/>
<path d="M0 0 C0.66 0 1.32 0 2 0 C2.33 1.98 2.66 3.96 3 6 C0 8 0 8 -4 8 C-4.061875 8.61875 -4.12375 9.2375 -4.1875 9.875 C-5 12 -5 12 -7.5625 13.25 C-8.366875 13.4975 -9.17125 13.745 -10 14 C-8.87548273 11.0280615 -7.77706209 8.66559313 -6 6 C-5.34 6 -4.68 6 -4 6 C-3.71125 5.38125 -3.4225 4.7625 -3.125 4.125 C-2 2 -2 2 0 0 Z " fill="#6D460E" transform="translate(271,75)"/>
<path d="M0 0 C7.92 0 15.84 0 24 0 C23.67 1.32 23.34 2.64 23 4 C23 3.34 23 2.68 23 2 C22.01 2.33 21.02 2.66 20 3 C17.70995138 3.09565314 15.4170403 3.12984575 13.125 3.125 C11.91070312 3.12757813 10.69640625 3.13015625 9.4453125 3.1328125 C6.48880905 3.01884298 3.86808185 2.68703101 1 2 C1.33 2.99 1.66 3.98 2 5 C1.34 5 0.68 5 0 5 C0 3.35 0 1.7 0 0 Z " fill="#846A46" transform="translate(275,329)"/>
<path d="M0 0 C2.12046792 3.53411321 2.53199289 6.94393835 3 11 C2.01 11.33 1.02 11.66 0 12 C0.33 13.65 0.66 15.3 1 17 C0.34 17 -0.32 17 -1 17 C-1.69640673 14.87790224 -2.38188357 12.75221473 -3.0625 10.625 C-3.44535156 9.44164062 -3.82820312 8.25828125 -4.22265625 7.0390625 C-5 4 -5 4 -4 2 C-3.01 3.485 -3.01 3.485 -2 5 C-1.34 3.35 -0.68 1.7 0 0 Z " fill="#73552D" transform="translate(259,197)"/>
<path d="M0 0 C1.32 0 2.64 0 4 0 C6.59227518 4.86051596 6.18689553 9.65271133 6 15 C5.01 15 4.02 15 3 15 C2.8046875 12.94921875 2.609375 10.8984375 2.4140625 8.84765625 C2.20910156 7.93306641 2.20910156 7.93306641 2 7 C1.34 6.67 0.68 6.34 0 6 C0 4.02 0 2.04 0 0 Z " fill="#6D4A18" transform="translate(247,113)"/>
<path d="M0 0 C1.32 0 2.64 0 4 0 C4 5.28 4 10.56 4 16 C3.01 15.67 2.02 15.34 1 15 C1 12.03 1 9.06 1 6 C0.01 6.33 -0.98 6.66 -2 7 C-2 7.66 -2 8.32 -2 9 C-2.66 8.67 -3.32 8.34 -4 8 C-3.2884375 7.13375 -3.2884375 7.13375 -2.5625 6.25 C-1.0515133 4.07417916 -0.45963849 2.57397552 0 0 Z " fill="#684718" transform="translate(190,297)"/>
<path d="M0 0 C5.57142857 5.14285714 5.57142857 5.14285714 6 9 C5.01 9.33 4.02 9.66 3 10 C3 11.65 3 13.3 3 15 C2.01 15.495 2.01 15.495 1 16 C-1.475 12.04 -1.475 12.04 -4 8 C-2.68 8.33 -1.36 8.66 0 9 C0 7.68 0 6.36 0 5 C0 3.33333333 0 1.66666667 0 0 Z " fill="#724F22" transform="translate(245,104)"/>
<path d="M0 0 C7.62951555 -0.34855655 13.92444501 -0.0017506 21 3 C21 3.33 21 3.66 21 4 C19.02 4 17.04 4 15 4 C15 3.34 15 2.68 15 2 C13.02463255 2.34786708 13.02463255 2.34786708 11 3 C10.67 3.66 10.34 4.32 10 5 C11.65 5.33 13.3 5.66 15 6 C14.34 6.66 13.68 7.32 13 8 C10.8359375 7.7578125 10.8359375 7.7578125 8.375 7.125 C7.14910156 6.81949219 7.14910156 6.81949219 5.8984375 6.5078125 C5.27195313 6.34023438 4.64546875 6.17265625 4 6 C5.32 5.67 6.64 5.34 8 5 C8 3.68 8 2.36 8 1 C5.36 1 2.72 1 0 1 C0 0.67 0 0.34 0 0 Z " fill="#745630" transform="translate(238,328)"/>
<path d="M0 0 C1.65 0 3.3 0 5 0 C5 0.66 5 1.32 5 2 C4.38125 2.061875 3.7625 2.12375 3.125 2.1875 C0.7498001 2.80875315 0.7498001 2.80875315 -0.0625 5.375 C-0.371875 6.24125 -0.68125 7.1075 -1 8 C-3.31483574 11.08644765 -5.25648316 11.44709575 -9 12 C-11.61481958 12.06774144 -14.19979256 12.09500258 -16.8125 12.0625 C-17.50537109 12.05798828 -18.19824219 12.05347656 -18.91210938 12.04882812 C-20.60811068 12.03713156 -22.30406703 12.01919924 -24 12 C-24 11.67 -24 11.34 -24 11 C-23.05898437 10.96261719 -22.11796875 10.92523438 -21.1484375 10.88671875 C-19.90320313 10.82097656 -18.65796875 10.75523437 -17.375 10.6875 C-15.53035156 10.60048828 -15.53035156 10.60048828 -13.6484375 10.51171875 C-9.1246317 9.8772235 -5.47187135 8.83787144 -2.5390625 5.17578125 C-2.23742187 4.56089844 -1.93578125 3.94601562 -1.625 3.3125 C-1.08875 2.219375 -0.5525 1.12625 0 0 Z " fill="#7B603B" transform="translate(252,297)"/>
<path d="M0 0 C0.66 0 1.32 0 2 0 C2.85380428 2.96121008 3.13517764 5.6087644 3.125 8.6875 C3.12757813 9.47511719 3.13015625 10.26273437 3.1328125 11.07421875 C3 13 3 13 2 14 C0.33382885 14.04063832 -1.33388095 14.042721 -3 14 C-3.99 11.36 -4.98 8.72 -6 6 C-5.01 6 -4.02 6 -3 6 C-2.34 7.65 -1.68 9.3 -1 11 C-0.67 11 -0.34 11 0 11 C0 7.37 0 3.74 0 0 Z " fill="#735834" transform="translate(252,257)"/>
<path d="M0 0 C2.64 0 5.28 0 8 0 C7.67 1.32 7.34 2.64 7 4 C2.5621439 5.11165232 -1.76956386 5.11527763 -6.3125 5.0625 C-7.05306641 5.05798828 -7.79363281 5.05347656 -8.55664062 5.04882812 C-10.37112899 5.03712175 -12.18557534 5.01918898 -14 5 C-14 4.67 -14 4.34 -14 4 C-9.71 4 -5.42 4 -1 4 C-0.67 2.68 -0.34 1.36 0 0 Z " fill="#745324" transform="translate(377,257)"/>
<path d="M0 0 C5.28 0 10.56 0 16 0 C15.67 1.32 15.34 2.64 15 4 C15 3.01 15 2.02 15 1 C11.37 1.33 7.74 1.66 4 2 C4.33 3.32 4.66 4.64 5 6 C5.66 6 6.32 6 7 6 C7 6.99 7 7.98 7 9 C5.02 9.66 3.04 10.32 1 11 C1.66 9.02 2.32 7.04 3 5 C2.01 4.67 1.02 4.34 0 4 C0 2.68 0 1.36 0 0 Z " fill="#73562F" transform="translate(187,352)"/>
<path d="M0 0 C5.61 0 11.22 0 17 0 C13.57905758 2.28062828 12.31812778 2.21925007 8.3125 2.125 C6.82169922 2.09792969 6.82169922 2.09792969 5.30078125 2.0703125 C4.54152344 2.04710937 3.78226562 2.02390625 3 2 C3.33 4.31 3.66 6.62 4 9 C3.67 8.01 3.34 7.02 3 6 C2.01 5.67 1.02 5.34 0 5 C0 3.35 0 1.7 0 0 Z " fill="#846C4B" transform="translate(289,255)"/>
<path d="M0 0 C-1.8374444 1.22496293 -3.70762973 2.40435984 -5.625 3.5 C-8.1057227 4.78026262 -8.1057227 4.78026262 -9 7 C-10.3921875 7.37125 -10.3921875 7.37125 -11.8125 7.75 C-15.83384689 9.32699878 -16.91408397 11.30953317 -19 15 C-19 11.02827889 -17.65180497 8.81374726 -15 6 C-10.20161634 2.43155617 -6.14394881 -0.46162048 0 0 Z " fill="#785D39" transform="translate(238,329)"/>
<path d="M0 0 C0.33 0 0.66 0 1 0 C1 1.98 1 3.96 1 6 C1.99 6.33 2.98 6.66 4 7 C-0.07369424 9.03684712 -2.58937864 9.0257259 -7 8 C-6.6875 6.125 -6.6875 6.125 -6 4 C-5.01 3.34 -4.02 2.68 -3 2 C-2.34 2.66 -1.68 3.32 -1 4 C-0.67 2.68 -0.34 1.36 0 0 Z " fill="#6B4510" transform="translate(289,286)"/>
<path d="M0 0 C1.65 0 3.3 0 5 0 C5 5.61 5 11.22 5 17 C3.35 17 1.7 17 0 17 C-0.99 15.02 -1.98 13.04 -3 11 C-2.01 11 -1.02 11 0 11 C0 11.99 0 12.98 0 14 C0.99 14 1.98 14 3 14 C3.33 9.71 3.66 5.42 4 1 C2.68 0.67 1.36 0.34 0 0 Z " fill="#775D3A" transform="translate(376,277)"/>
<path d="M0 0 C0.33 0.66 0.66 1.32 1 2 C1.99 1.34 2.98 0.68 4 0 C6.1875 0.375 6.1875 0.375 8 1 C7.67 2.32 7.34 3.64 7 5 C11.95 5 16.9 5 22 5 C22 5.33 22 5.66 22 6 C15.66666667 6 9.33333333 6 3 6 C2.34 5.34 1.68 4.68 1 4 C0.01 4.66 -0.98 5.32 -2 6 C-1.34 4.02 -0.68 2.04 0 0 Z " fill="#8A7250" transform="translate(284,285)"/>
<path d="M0 0 C0 3 0 3 -1.25 4.6875 C-3 6 -3 6 -7 6 C-7.33 6.66 -7.66 7.32 -8 8 C-9.30915279 9.03145371 -10.64082143 10.03542166 -12 11 C-12.99 10.34 -13.98 9.68 -15 9 C-10.20135523 5.14862017 -5.77357759 2.1650916 0 0 Z " fill="#795D3B" transform="translate(288,65)"/>
<path d="M0 0 C1.08539063 0.20496094 2.17078125 0.40992188 3.2890625 0.62109375 C4.73436885 0.89326183 6.1796817 1.16539542 7.625 1.4375 C8.33785156 1.57220703 9.05070312 1.70691406 9.78515625 1.84570312 C13.84995013 2.61018271 17.91714075 3.33669637 22 4 C20 6 20 6 17.20703125 6.1171875 C10.39956183 5.63149923 5.58086308 5.02341292 0 1 C0 0.67 0 0.34 0 0 Z " fill="#735831" transform="translate(286,379)"/>
<path d="M0 0 C1.8046875 1.5234375 1.8046875 1.5234375 3 3 C2.34 3 1.68 3 1 3 C0.67 3.99 0.34 4.98 0 6 C-2.475 5.01 -2.475 5.01 -5 4 C-5 3.34 -5 2.68 -5 2 C-6.6396875 2.2475 -6.6396875 2.2475 -8.3125 2.5 C-12 3 -12 3 -15 3 C-10.51424062 -0.58860751 -5.53376174 -0.95668423 0 0 Z " fill="#765830" transform="translate(178,332)"/>
<path d="M0 0 C1.32 0.33 2.64 0.66 4 1 C3.67 4.3 3.34 7.6 3 11 C2.01 11 1.02 11 0 11 C0 10.01 0 9.02 0 8 C-0.66 8 -1.32 8 -2 8 C-1.34 5.36 -0.68 2.72 0 0 Z " fill="#6E450F" transform="translate(376,280)"/>
<path d="M0 0 C2.97 0.495 2.97 0.495 6 1 C5.65120368 4.25543229 4.97866739 5.01873107 2.4375 7.25 C1.2309375 8.11625 1.2309375 8.11625 0 9 C-1.125 6.1875 -1.125 6.1875 -2 3 C-1.34 2.01 -0.68 1.02 0 0 Z " fill="#755630" transform="translate(259,370)"/>
<path d="M0 0 C0.66 0 1.32 0 2 0 C2.09765625 6.15234375 2.09765625 6.15234375 2 8 C1.67 8.33 1.34 8.66 1 9 C0.76636119 10.84891946 0.58696365 12.70488031 0.4375 14.5625 C0.35371094 15.57441406 0.26992187 16.58632812 0.18359375 17.62890625 C0.12300781 18.41136719 0.06242188 19.19382813 0 20 C-0.33 20 -0.66 20 -1 20 C-1.22224251 17.41718164 -1.42823488 14.83477813 -1.625 12.25 C-1.72167969 11.15558594 -1.72167969 11.15558594 -1.8203125 10.0390625 C-2.10381649 6.14088264 -2.27081383 3.29354678 0 0 Z " fill="#745329" transform="translate(254,175)"/>
<path d="M0 0 C1.32 0.33 2.64 0.66 4 1 C3.525625 1.886875 3.05125 2.77375 2.5625 3.6875 C1.20262851 6.57042756 0.45939614 8.87610623 0 12 C-0.66 11.01 -1.32 10.02 -2 9 C-2.66 8.67 -3.32 8.34 -4 8 C-4 6.68 -4 5.36 -4 4 C-3.01 3.67 -2.02 3.34 -1 3 C-0.67 2.01 -0.34 1.02 0 0 Z " fill="#6A460F" transform="translate(269,164)"/>
<path d="M0 0 C-0.3125 1.875 -0.3125 1.875 -1 4 C-1.99 4.66 -2.98 5.32 -4 6 C-4.72382467 8.05925139 -4.72382467 8.05925139 -5 10 C-5.33 10 -5.66 10 -6 10 C-6 13.3 -6 16.6 -6 20 C-8.53722054 17.46277946 -8.38319839 16.34088191 -8.5 12.8125 C-8.43018884 7.50685163 -7.15473777 4.9059735 -3.5078125 1.14453125 C-2 0 -2 0 0 0 Z " fill="#775C36" transform="translate(160,358)"/>
<path d="M0 0 C1.98 0 3.96 0 6 0 C6.33 1.65 6.66 3.3 7 5 C2.71 4.67 -1.58 4.34 -6 4 C-5.67 3.34 -5.34 2.68 -5 2 C-3.68 2 -2.36 2 -1 2 C-0.67 1.34 -0.34 0.68 0 0 Z " fill="#714F23" transform="translate(363,308)"/>
<path d="M0 0 C0.33 0 0.66 0 1 0 C1 8.25 1 16.5 1 25 C0.01 25.33 -0.98 25.66 -2 26 C-2.04254356 24.00045254 -2.04080783 21.99958364 -2 20 C-1.67 19.67 -1.34 19.34 -1 19 C-0.84379445 17.58672053 -0.74943827 16.1664541 -0.68359375 14.74609375 C-0.64169922 13.89208984 -0.59980469 13.03808594 -0.55664062 12.15820312 C-0.51732422 11.26037109 -0.47800781 10.36253906 -0.4375 9.4375 C-0.39431641 8.53580078 -0.35113281 7.63410156 -0.30664062 6.70507812 C-0.20021858 4.47021515 -0.09820012 2.23523692 0 0 Z " fill="#5F3B0F" transform="translate(256,164)"/>
<path d="M0 0 C0.66 0.33 1.32 0.66 2 1 C0.68 1.33 -0.64 1.66 -2 2 C-2.33 3.65 -2.66 5.3 -3 7 C-3.99 6.34 -4.98 5.68 -6 5 C-7.98 5.99 -9.96 6.98 -12 8 C-13.32 7.01 -14.64 6.02 -16 5 C-15.09636719 4.72285156 -14.19273437 4.44570312 -13.26171875 4.16015625 C-12.08222656 3.79792969 -10.90273438 3.43570313 -9.6875 3.0625 C-7.92986328 2.52302734 -7.92986328 2.52302734 -6.13671875 1.97265625 C-4.08446023 1.33627721 -2.03839863 0.67946621 0 0 Z " fill="#7A5F39" transform="translate(350,186)"/>
<path d="M0 0 C0.66 0.33 1.32 0.66 2 1 C0.60068938 4.30093787 -0.96216672 6.09181266 -3.8125 8.25 C-4.47894531 8.77078125 -5.14539063 9.2915625 -5.83203125 9.828125 C-8.40318024 11.21793527 -10.11943184 11.22119546 -13 11 C-11.33784732 9.66104368 -9.67036393 8.32869858 -8 7 C-6.9171875 6.13375 -6.9171875 6.13375 -5.8125 5.25 C-4 4 -4 4 -2 4 C-2 3.34 -2 2.68 -2 2 C-1.34 2 -0.68 2 0 2 C0 1.34 0 0.68 0 0 Z " fill="#795F39" transform="translate(365,175)"/>
<path d="M0 0 C0.66 0 1.32 0 2 0 C1.67 0.99 1.34 1.98 1 3 C0.91684248 5.06498892 0.89264122 7.1325789 0.90234375 9.19921875 C0.90556641 10.40771484 0.90878906 11.61621094 0.91210938 12.86132812 C0.92048828 14.12396484 0.92886719 15.38660156 0.9375 16.6875 C0.94426758 18.59885742 0.94426758 18.59885742 0.95117188 20.54882812 C0.96297127 23.69926564 0.97943403 26.84960949 1 30 C0.67 30 0.34 30 0 30 C-1.0839844 23.85742172 -1.14942248 17.85273325 -1.125 11.625 C-1.12886719 10.61566406 -1.13273438 9.60632813 -1.13671875 8.56640625 C-1.13542969 7.60863281 -1.13414062 6.65085938 -1.1328125 5.6640625 C-1.13168457 4.79217285 -1.13055664 3.9202832 -1.12939453 3.02197266 C-1 1 -1 1 0 0 Z " fill="#7C6341" transform="translate(181,129)"/>
<path d="M0 0 C3.58805994 1.48832083 5.60130497 3.51557933 8.125 6.4375 C8.80820313 7.21996094 9.49140625 8.00242187 10.1953125 8.80859375 C12 11 12 11 14 14 C13.67 14.99 13.34 15.98 13 17 C11.82750647 15.54634731 10.66216184 14.08692581 9.5 12.625 C8.8503125 11.81289062 8.200625 11.00078125 7.53125 10.1640625 C6 8 6 8 6 6 C5.34 6 4.68 6 4 6 C1.875 4.125 1.875 4.125 0 2 C0 1.34 0 0.68 0 0 Z " fill="#DCD2C7" transform="translate(234,107)"/>
<path d="M0 0 C0.33 0 0.66 0 1 0 C1 2.97 1 5.94 1 9 C1.66 8.34 2.32 7.68 3 7 C5.625 7.375 5.625 7.375 8 8 C4.25 11 4.25 11 2 11 C1.67 11.66 1.34 12.32 1 13 C0.01 13 -0.98 13 -2 13 C-1.39174965 8.65535464 -0.73832608 4.32448133 0 0 Z " fill="#7A5E37" transform="translate(261,176)"/>
<path d="M0 0 C0.66 0 1.32 0 2 0 C2.2236337 1.41433206 2.42826476 2.83167618 2.625 4.25 C2.74101562 5.03890625 2.85703125 5.8278125 2.9765625 6.640625 C3.00319395 9.32152459 2.36592084 10.72694089 1 13 C-1.70238949 8.94641576 -1.22937614 6.81689896 -1 2 C-0.67 1.34 -0.34 0.68 0 0 Z " fill="#6D470F" transform="translate(256,190)"/>
<path d="M0 0 C2.45862401 -0.05383848 4.9160755 -0.09359038 7.375 -0.125 C8.42300781 -0.15013672 8.42300781 -0.15013672 9.4921875 -0.17578125 C11.32897486 -0.19344267 13.16601963 -0.10303261 15 0 C15.66 0.66 16.32 1.32 17 2 C12.38 2 7.76 2 3 2 C2.67 2.66 2.34 3.32 2 4 C1.34 2.68 0.68 1.36 0 0 Z " fill="#897458" transform="translate(207,91)"/>
<path d="M0 0 C0 0.99 0 1.98 0 3 C0.66 3.33 1.32 3.66 2 4 C1.01 6.97 0.02 9.94 -1 13 C-1.33 13 -1.66 13 -2 13 C-2.13277344 12.30132812 -2.26554687 11.60265625 -2.40234375 10.8828125 C-2.57894531 9.97273438 -2.75554687 9.06265625 -2.9375 8.125 C-3.11152344 7.22007812 -3.28554688 6.31515625 -3.46484375 5.3828125 C-3.89963701 3.00043683 -3.89963701 3.00043683 -5 1 C-3 0 -3 0 0 0 Z " fill="#6F4E24" transform="translate(378,337)"/>
<path d="M0 0 C3.34148439 1.17403506 5.81103718 2.15434834 8 5 C8.6875 7.1875 8.6875 7.1875 9 9 C8.01 9 7.02 9 6 9 C6 8.01 6 7.02 6 6 C4.02 5.34 2.04 4.68 0 4 C0 2.68 0 1.36 0 0 Z " fill="#71532C" transform="translate(378,331)"/>
<path d="M0 0 C-0.33 0.99 -0.66 1.98 -1 3 C-0.67 3.99 -0.34 4.98 0 6 C-0.99 6.33 -1.98 6.66 -3 7 C-3.33 6.01 -3.66 5.02 -4 4 C-5.98 4 -7.96 4 -10 4 C-10.33 3.34 -10.66 2.68 -11 2 C-9.5422647 1.664061 -8.08378894 1.33133376 -6.625 1 C-5.40683594 0.7215625 -5.40683594 0.7215625 -4.1640625 0.4375 C-2 0 -2 0 0 0 Z " fill="#775E33" transform="translate(179,376)"/>
<path d="M0 0 C0.33 0.66 0.66 1.32 1 2 C1.639375 2.309375 2.27875 2.61875 2.9375 2.9375 C5 4 5 4 7 7 C6.01 7 5.02 7 4 7 C4 6.34 4 5.68 4 5 C3.34 5 2.68 5 2 5 C1.67 5.99 1.34 6.98 1 8 C0.34 7.67 -0.32 7.34 -1 7 C-1 6.34 -1 5.68 -1 5 C-1.66 4.34 -2.32 3.68 -3 3 C-2.01 2.01 -1.02 1.02 0 0 Z " fill="#755228" transform="translate(163,354)"/>
<path d="M0 0 C0.33 0 0.66 0 1 0 C1 3.96 1 7.92 1 12 C-0.98 11.34 -2.96 10.68 -5 10 C-5 9.01 -5 8.02 -5 7 C-3.35 6.34 -1.7 5.68 0 5 C0 3.35 0 1.7 0 0 Z " fill="#694310" transform="translate(245,278)"/>
<path d="M0 0 C0.5775 0.639375 1.155 1.27875 1.75 1.9375 C3.98062401 3.98223868 5.07436391 4.58205199 8 5 C7.67 6.32 7.34 7.64 7 9 C4.03 8.505 4.03 8.505 1 8 C0.67 5.36 0.34 2.72 0 0 Z " fill="#765833" transform="translate(359,374)"/>
<path d="M0 0 C0.66 0.33 1.32 0.66 2 1 C0.02 3.31 -1.96 5.62 -4 8 C-5.98 7.34 -7.96 6.68 -10 6 C-8.0331974 4.0331974 -6.4555341 3.0628363 -4 1.8125 C-3.29875 1.44769531 -2.5975 1.08289063 -1.875 0.70703125 C-1.25625 0.47371094 -0.6375 0.24039063 0 0 Z " fill="#785D37" transform="translate(301,214)"/>
<path d="M0 0 C3.27235512 3.15115678 6.2025724 6.42550918 9 10 C9 10.66 9 11.32 9 12 C7.68 12.33 6.36 12.66 5 13 C4.87625 12.195625 4.7525 11.39125 4.625 10.5625 C4.41875 9.716875 4.2125 8.87125 4 8 C3.34 7.67 2.68 7.34 2 7 C1.26924352 4.6859378 0.59861742 2.35171131 0 0 Z " fill="#785C36" transform="translate(201,192)"/>
<path d="M0 0 C0 4.20547571 -2.36738124 6.16710361 -5 9.1875 C-5.47695313 9.74630859 -5.95390625 10.30511719 -6.4453125 10.88085938 C-7.62366206 12.25952836 -8.81098952 13.63051472 -10 15 C-10 9.51768203 -5.26663879 5.33330399 -1.625 1.5 C-0.820625 0.7575 -0.820625 0.7575 0 0 Z " fill="#D6CABE" transform="translate(278,164)"/>
<path d="M0 0 C0.99 0.33 1.98 0.66 3 1 C0.525 6.94 0.525 6.94 -2 13 C-3.05981268 8.76074927 -2.86301927 6.23664003 -2 2 C-1.34 1.34 -0.68 0.68 0 0 Z " fill="#6B4C20" transform="translate(379,164)"/>
<path d="M0 0 C0 4.29 0 8.58 0 13 C-0.33 13 -0.66 13 -1 13 C-1 10.03 -1 7.06 -1 4 C-3.64 3.67 -6.28 3.34 -9 3 C-4.5 0 -4.5 0 0 0 Z " fill="#958168" transform="translate(303,60)"/>
<path d="M0 0 C0.33 0 0.66 0 1 0 C1.33 1.98 1.66 3.96 2 6 C-0.375 7.0625 -0.375 7.0625 -3 8 C-3.66 7.67 -4.32 7.34 -5 7 C-5.33 7.99 -5.66 8.98 -6 10 C-6.33 8.35 -6.66 6.7 -7 5 C-6.401875 4.855625 -5.80375 4.71125 -5.1875 4.5625 C-3.43849596 4.1127561 -1.71322977 3.57107659 0 3 C0 2.01 0 1.02 0 0 Z " fill="#725324" transform="translate(192,169)"/>
<path d="M0 0 C1.98 0.495 1.98 0.495 4 1 C4 2.65 4 4.3 4 6 C3.34 6 2.68 6 2 6 C1.67 6.99 1.34 7.98 1 9 C-1 6 -1 6 -0.625 2.8125 C-0.41875 1.884375 -0.2125 0.95625 0 0 Z " fill="#6C4814" transform="translate(178,334)"/>
<path d="M0 0 C1.65 0.33 3.3 0.66 5 1 C5.33 1.99 5.66 2.98 6 4 C2.7 4 -0.6 4 -4 4 C-4 3.01 -4 2.02 -4 1 C-2.68 1.33 -1.36 1.66 0 2 C0 1.34 0 0.68 0 0 Z " fill="#654310" transform="translate(274,309)"/>
<path d="M0 0 C0 1.65 0 3.3 0 5 C-2.31 5.66 -4.62 6.32 -7 7 C-6.75 4.625 -6.75 4.625 -6 2 C-3.84898936 0.54286376 -2.59713506 0 0 0 Z " fill="#694510" transform="translate(292,280)"/>
<path d="M0 0 C1.890625 0.18359375 1.890625 0.18359375 4 1 C5.046875 3.28515625 5.046875 3.28515625 5.75 6.0625 C5.99234375 6.98160156 6.2346875 7.90070313 6.484375 8.84765625 C6.65453125 9.55792969 6.8246875 10.26820313 7 11 C6.34 11 5.68 11 5 11 C4.67 11.66 4.34 12.32 4 13 C2.70756464 8.8803623 1.73747375 5.33168317 2 1 C1.34 0.67 0.68 0.34 0 0 Z " fill="#6F5228" transform="translate(304,256)"/>
<path d="M0 0 C0.99 0 1.98 0 3 0 C2.7178711 2.27203802 2.42397144 4.54261684 2.125 6.8125 C1.88136719 8.70935547 1.88136719 8.70935547 1.6328125 10.64453125 C1 14 1 14 -1 17 C-0.67 11.39 -0.34 5.78 0 0 Z " fill="#745833" transform="translate(336,145)"/>
<path d="M0 0 C0.7425 0.0825 1.485 0.165 2.25 0.25 C1.59 2.23 0.93 4.21 0.25 6.25 C-2.06 5.59 -4.37 4.93 -6.75 4.25 C-3.42692308 0.31153846 -3.42692308 0.31153846 0 0 Z " fill="#714F1E" transform="translate(238.75,118.75)"/>
<path d="M0 0 C0.99 0.33 1.98 0.66 3 1 C4.1875 3.5625 4.1875 3.5625 5 6 C4.01 6.33 3.02 6.66 2 7 C1.34 6.01 0.68 5.02 0 4 C-2.05925139 3.27617533 -2.05925139 3.27617533 -4 3 C-2.1875 1.4375 -2.1875 1.4375 0 0 Z " fill="#735126" transform="translate(278,153)"/>
<path d="M0 0 C0.33 1.32 0.66 2.64 1 4 C0.01 4.33 -0.98 4.66 -2 5 C-2.103125 5.763125 -2.20625 6.52625 -2.3125 7.3125 C-3.04364039 10.17059424 -3.76951913 11.15742885 -6 13 C-6 9.32965255 -4.9247108 7.9000569 -3 4.8125 C-2.443125 3.91144531 -1.88625 3.01039062 -1.3125 2.08203125 C-0.6628125 1.05142578 -0.6628125 1.05142578 0 0 Z " fill="#765D38" transform="translate(278,92)"/>
<path d="M0 0 C0.33 0.66 0.66 1.32 1 2 C0.34 2 -0.32 2 -1 2 C-1 3.65 -1 5.3 -1 7 C-1.99 6.67 -2.98 6.34 -4 6 C-4 5.01 -4 4.02 -4 3 C-6.64 3 -9.28 3 -12 3 C-12 2.67 -12 2.34 -12 2 C-10.95199219 1.90912109 -10.95199219 1.90912109 -9.8828125 1.81640625 C-8.97273438 1.73261719 -8.06265625 1.64882813 -7.125 1.5625 C-6.22007812 1.48128906 -5.31515625 1.40007812 -4.3828125 1.31640625 C-1.98889139 1.13010715 -1.98889139 1.13010715 0 0 Z " fill="#75552C" transform="translate(374,280)"/>
<path d="M0 0 C0.99 0 1.98 0 3 0 C3.66 1.65 4.32 3.3 5 5 C5.66 5 6.32 5 7 5 C7.33 5.99 7.66 6.98 8 8 C6.35 8 4.7 8 3 8 C2.01 5.36 1.02 2.72 0 0 Z " fill="#795D3A" transform="translate(246,263)"/>
<path d="M0 0 C2.31 0 4.62 0 7 0 C5.515 1.485 5.515 1.485 4 3 C4.99 3.33 5.98 3.66 7 4 C6.34 4.66 5.68 5.32 5 6 C2.525 5.01 2.525 5.01 0 4 C0 2.68 0 1.36 0 0 Z " fill="#6C4D21" transform="translate(147,256)"/>
<path d="M0 0 C0.66 0.99 1.32 1.98 2 3 C0.87926138 3.83905565 -0.24674547 4.67107831 -1.375 5.5 C-2.00148438 5.9640625 -2.62796875 6.428125 -3.2734375 6.90625 C-5 8 -5 8 -7 8 C-7 7.01 -7 6.02 -7 5 C-5.68 5 -4.36 5 -3 5 C-2.690625 4.360625 -2.38125 3.72125 -2.0625 3.0625 C-1 1 -1 1 0 0 Z " fill="#6A4B21" transform="translate(313,212)"/>
<path d="M0 0 C0.66 0.66 1.32 1.32 2 2 C1.34 2 0.68 2 0 2 C0.2784375 3.1446875 0.2784375 3.1446875 0.5625 4.3125 C1 7 1 7 0 10 C-0.99 9.67 -1.98 9.34 -3 9 C-2.4140625 2.84765625 -2.4140625 2.84765625 -2 1 C-1.34 0.67 -0.68 0.34 0 0 Z " fill="#6B4711" transform="translate(319,201)"/>
<path d="M0 0 C0.93423645 3.01031744 1.04449911 3.86650268 0 7 C-1.65 6.67 -3.3 6.34 -5 6 C-3.63016497 2.83884224 -3.0109362 2.0072908 0 0 Z " fill="#6B440A" transform="translate(289,163)"/>
<path d="M0 0 C0 0.33 0 0.66 0 1 C-1.65 1 -3.3 1 -5 1 C-5 1.99 -5 2.98 -5 4 C-6.98 4 -8.96 4 -11 4 C-11 3.34 -11 2.68 -11 2 C-11.66 1.67 -12.32 1.34 -13 1 C-8.60563789 0.14256349 -4.47427924 -0.08948558 0 0 Z " fill="#76582F" transform="translate(298,149)"/>
<path d="M0 0 C0.33 0 0.66 0 1 0 C1 1.98 1 3.96 1 6 C-0.32 6.33 -1.64 6.66 -3 7 C-3 7.66 -3 8.32 -3 9 C-4.32 8.67 -5.64 8.34 -7 8 C-7 7.34 -7 6.68 -7 6 C-6.21625 5.938125 -5.4325 5.87625 -4.625 5.8125 C-3.75875 5.544375 -2.8925 5.27625 -2 5 C-0.62533375 2.52363988 -0.62533375 2.52363988 0 0 Z " fill="#7F6343" transform="translate(277,302)"/>
<path d="M0 0 C0.7425 0.0825 1.485 0.165 2.25 0.25 C2.58 1.24 2.91 2.23 3.25 3.25 C1.93 3.58 0.61 3.91 -0.75 4.25 C-0.75 3.59 -0.75 2.93 -0.75 2.25 C-2.73 2.91 -4.71 3.57 -6.75 4.25 C-3.42692308 0.31153846 -3.42692308 0.31153846 0 0 Z " fill="#77572B" transform="translate(309.75,209.75)"/>
<path d="M0 0 C3.0831351 1.19899698 6.06279492 2.47700477 9 4 C8.67 5.32 8.34 6.64 8 8 C6.66372225 6.85760183 5.33104612 5.71098945 4 4.5625 C3.2575 3.92441406 2.515 3.28632812 1.75 2.62890625 C1.1725 2.09136719 0.595 1.55382812 0 1 C0 0.67 0 0.34 0 0 Z " fill="#785D3A" transform="translate(222,114)"/>
<path d="M0 0 C2.1519437 3.22791555 2.20086443 4.28400809 2 8 C0.68 8 -0.64 8 -2 8 C-1.125 2.25 -1.125 2.25 0 0 Z " fill="#795C37" transform="translate(160,338)"/>
<path d="M0 0 C1.65 0 3.3 0 5 0 C4.67 1.32 4.34 2.64 4 4 C2.35 4.33 0.7 4.66 -1 5 C-0.67 3.35 -0.34 1.7 0 0 Z " fill="#71582F" transform="translate(208,308)"/>
<path d="M0 0 C2 3 2 3 1.6875 5 C1.3471875 5.99 1.3471875 5.99 1 7 C0.67 7.99 0.34 8.98 0 10 C-0.66 10 -1.32 10 -2 10 C-1.54177532 6.53058454 -1.10868317 3.32604951 0 0 Z " fill="#775C34" transform="translate(281,291)"/>
<path d="M0 0 C2.475 0.495 2.475 0.495 5 1 C5.33 1.99 5.66 2.98 6 4 C4.125 4.625 4.125 4.625 2 5 C1.34 4.34 0.68 3.68 0 3 C0 2.01 0 1.02 0 0 Z " fill="#755935" transform="translate(207,256)"/>
<path d="M0 0 C1.98 0 3.96 0 6 0 C5.6875 1.9375 5.6875 1.9375 5 4 C4.01 4.33 3.02 4.66 2 5 C1.34 3.35 0.68 1.7 0 0 Z " fill="#715634" transform="translate(197,378)"/>
<path d="M0 0 C0.99 0.99 1.98 1.98 3 3 C2.67 3.66 2.34 4.32 2 5 C0.02 5 -1.96 5 -4 5 C-3.67 5.99 -3.34 6.98 -3 8 C-3.99 8.495 -3.99 8.495 -5 9 C-5 7.35 -5 5.7 -5 4 C-4.0409375 3.8453125 -4.0409375 3.8453125 -3.0625 3.6875 C-2.381875 3.460625 -1.70125 3.23375 -1 3 C-0.67 2.01 -0.34 1.02 0 0 Z " fill="#7D6440" transform="translate(311,304)"/>
<path d="M0 0 C1.98 0 3.96 0 6 0 C5.67 1.32 5.34 2.64 5 4 C5 3.01 5 2.02 5 1 C3.68 1 2.36 1 1 1 C1 2.65 1 4.3 1 6 C-0.32 6.33 -1.64 6.66 -3 7 C-2.01 4.69 -1.02 2.38 0 0 Z " fill="#8C775E" transform="translate(189,296)"/>
<path d="M0 0 C1.73662334 3.22515763 2.8905928 6.51329166 4 10 C2.0625 9.3125 2.0625 9.3125 0 8 C-1.09809194 4.70572419 -1.11196276 3.33588828 0 0 Z " fill="#6B5027" transform="translate(313,273)"/>
<path d="M0 0 C0.99 0.99 1.98 1.98 3 3 C2.01 2.67 1.02 2.34 0 2 C0 1.34 0 0.68 0 0 Z M0 3 C0.33 3 0.66 3 1 3 C1 4.98 1 6.96 1 9 C-0.32 8.67 -1.64 8.34 -3 8 C-2.03114628 6.31503702 -1.03013277 4.64821244 0 3 Z " fill="#6B4409" transform="translate(295,221)"/>
<path d="M0 0 C0.99 0.33 1.98 0.66 3 1 C2.67 2.98 2.34 4.96 2 7 C0 6 0 6 -1 5 C-1.99 5.495 -1.99 5.495 -3 6 C-3 4.68 -3 3.36 -3 2 C-2.01 2 -1.02 2 0 2 C0 1.34 0 0.68 0 0 Z " fill="#6A460F" transform="translate(324,195)"/>
<path d="M0 0 C-1.5830577 4.2742558 -4.50568404 6.26531794 -8 9 C-6.68994234 5.06982701 -4.75047804 0 0 0 Z " fill="#E7E2DC" transform="translate(353,146)"/>
<path d="M0 0 C0 3 0 3 -1.25 4.75 C-3 6 -3 6 -5.1875 5.6875 C-5.785625 5.460625 -6.38375 5.23375 -7 5 C-4.63707344 2.47411298 -3.33537489 1.11179163 0 0 Z " fill="#74562F" transform="translate(288,65)"/>
<path d="M0 0 C0.33 0 0.66 0 1 0 C2.45184478 4.53701494 3.23509196 8.18061476 3 13 C0.73437327 10.73437327 0.05537251 9.15839295 -0.09765625 5.95703125 C-0.06510417 3.97135417 -0.03255208 1.98567708 0 0 Z " fill="#704E24" transform="translate(186,141)"/>
<path d="M0 0 C5.57142857 5.14285714 5.57142857 5.14285714 6 9 C5.01 9.33 4.02 9.66 3 10 C3 8.35 3 6.7 3 5 C2.34 5 1.68 5 1 5 C0.67 3.35 0.34 1.7 0 0 Z " fill="#7B5F39" transform="translate(245,104)"/>
<path d="M0 0 C0.66 0 1.32 0 2 0 C1.8125 2.875 1.8125 2.875 1 6 C-1.5625 7.375 -1.5625 7.375 -4 8 C-2.87548273 5.0280615 -1.77706209 2.66559313 0 0 Z " fill="#795F3B" transform="translate(265,81)"/>
<path d="M0 0 C0.66 0.33 1.32 0.66 2 1 C1.25 6.75 1.25 6.75 -1 9 C-1.625 6.1875 -1.625 6.1875 -2 3 C-1.34 2.01 -0.68 1.02 0 0 Z " fill="#6E4D1F" transform="translate(324,366)"/>
<path d="M0 0 C1.98 0.495 1.98 0.495 4 1 C4 2.32 4 3.64 4 5 C2.35 5 0.7 5 -1 5 C-0.67 3.35 -0.34 1.7 0 0 Z " fill="#6D4813" transform="translate(208,204)"/>
<path d="M0 0 C0.66 1.32 1.32 2.64 2 4 C1.34 4 0.68 4 0 4 C0.33 5.32 0.66 6.64 1 8 C-0.32 8.33 -1.64 8.66 -3 9 C-2.01 6.03 -1.02 3.06 0 0 Z " fill="#72552C" transform="translate(373,161)"/>
<path d="M0 0 C0.97608217 2.92824652 1.08226668 4.95613276 1 8 C0.01 8 -0.98 8 -2 8 C-2.6875 5.6875 -2.6875 5.6875 -3 3 C-1.5625 1.1875 -1.5625 1.1875 0 0 Z " fill="#69450E" transform="translate(252,120)"/>
<path d="M0 0 C0.4125 0.45375 0.825 0.9075 1.25 1.375 C3.06408095 3.05950374 4.75285627 3.99265971 7 5 C7 5.33 7 5.66 7 6 C5.02 6 3.04 6 1 6 C0.67 4.02 0.34 2.04 0 0 Z " fill="#745835" transform="translate(294,372)"/>
<path d="M0 0 C2.0625 0.4375 2.0625 0.4375 4 1 C4 2.65 4 4.3 4 6 C3.01 6.495 3.01 6.495 2 7 C1.87625 6.195625 1.7525 5.39125 1.625 4.5625 C1.315625 3.2940625 1.315625 3.2940625 1 2 C0.34 1.67 -0.32 1.34 -1 1 C-0.67 0.67 -0.34 0.34 0 0 Z " fill="#725126" transform="translate(298,268)"/>
<path d="M0 0 C0.99 0 1.98 0 3 0 C3.33 1.65 3.66 3.3 4 5 C2.68 5 1.36 5 0 5 C0 3.35 0 1.7 0 0 Z " fill="#7B603C" transform="translate(343,256)"/>
<path d="M0 0 C3.465 1.98 3.465 1.98 7 4 C6.34 4.66 5.68 5.32 5 6 C4.01 6 3.02 6 2 6 C2 5.34 2 4.68 2 4 C1.01 3.67 0.02 3.34 -1 3 C-0.67 2.01 -0.34 1.02 0 0 Z " fill="#715429" transform="translate(219,211)"/>
<path d="M0 0 C1.43088528 2.86177057 0.59991697 4.93375773 0 8 C-1.32 8 -2.64 8 -4 8 C-2.87548273 5.0280615 -1.77706209 2.66559313 0 0 Z " fill="#80643F" transform="translate(269,160)"/>
<path d="M0 0 C0.66 1.32 1.32 2.64 2 4 C0.02 6.97 0.02 6.97 -2 10 C-3.39195915 5.82412255 -1.82323219 3.86525224 0 0 Z " fill="#D5C9BE" transform="translate(268,103)"/>
<path d="M0 0 C2.475 0.99 2.475 0.99 5 2 C4.67 2.99 4.34 3.98 4 5 C2.68 5 1.36 5 0 5 C-0.33 4.01 -0.66 3.02 -1 2 C-0.67 1.34 -0.34 0.68 0 0 Z " fill="#75582D" transform="translate(181,376)"/>
<path d="M0 0 C1.32 0 2.64 0 4 0 C4.33 0.99 4.66 1.98 5 3 C2 4 2 4 -1 3 C-0.67 2.01 -0.34 1.02 0 0 Z " fill="#6D460C" transform="translate(249,330)"/>
<path d="M0 0 C1.65 0 3.3 0 5 0 C5 0.66 5 1.32 5 2 C4.1028125 2.1546875 4.1028125 2.1546875 3.1875 2.3125 C0.71756736 3.08876455 -0.32251235 4.07088921 -2 6 C-1.34 4.02 -0.68 2.04 0 0 Z " fill="#887256" transform="translate(252,297)"/>
<path d="M0 0 C0.185625 0.8353125 0.185625 0.8353125 0.375 1.6875 C1.05976855 4.22114364 1.99133763 6.57921032 3 9 C2.34 9 1.68 9 1 9 C-2 3.25 -2 3.25 -2 1 C-1.34 0.67 -0.68 0.34 0 0 Z " fill="#73552E" transform="translate(227,223)"/>
<path d="M0 0 C0.33 0 0.66 0 1 0 C1 2.64 1 5.28 1 8 C-0.32 7.34 -1.64 6.68 -3 6 C-2.01 4.02 -1.02 2.04 0 0 Z " fill="#795C34" transform="translate(324,190)"/>
<path d="M0 0 C0.66 0 1.32 0 2 0 C1.34 2.97 0.68 5.94 0 9 C-0.33 9 -0.66 9 -1 9 C-1.09765625 2.84765625 -1.09765625 2.84765625 -1 1 C-0.67 0.67 -0.34 0.34 0 0 Z " fill="#64451A" transform="translate(374,152)"/>
<path d="M0 0 C0.66 0 1.32 0 2 0 C1.67 1.32 1.34 2.64 1 4 C0.01 4 -0.98 4 -2 4 C-2 4.66 -2 5.32 -2 6 C-2.66 6 -3.32 6 -4 6 C-2.84826645 3.53199953 -1.95216435 1.95216435 0 0 Z " fill="#7E6543" transform="translate(271,75)"/>
</svg>
