<svg width="512" height="470" viewBox="0 0 512 470" fill="none" xmlns="http://www.w3.org/2000/svg">
<path d="M241.117 43.2946C245.815 48.1118 250.324 53.1357 254.789 58.2114C257.628 56.7993 259.604 55.3541 261.736 52.8627C262.281 52.238 262.827 51.6133 263.389 50.9696C263.968 50.302 264.547 49.6345 265.143 48.9467C292.803 17.8604 329.339 0.749298 368.835 0.00805212C389.617 0.0655378 410.59 4.50784 429.429 14.29C430.097 14.635 430.765 14.98 431.454 15.3355C451.404 25.8406 468.878 41.0513 482.32 60.4074C482.985 61.3416 483.65 62.2758 484.335 63.2383C507.637 97.0194 515.551 139.763 510.578 181.491C509.76 186.969 508.626 192.318 507.268 197.662C506.948 198.941 506.948 198.941 506.62 200.246C503.436 212.533 498.842 223.796 493.297 234.995C492.733 236.157 492.168 237.319 491.586 238.516C485.035 251.457 476.497 262.615 467.351 273.426C466.303 274.692 465.256 275.959 464.209 277.226C457.04 285.852 449.577 293.971 441.751 301.872C439.092 304.558 436.513 307.308 433.982 310.142C431.076 313.387 428.042 316.378 424.903 319.346C421.525 322.633 418.247 326.031 414.959 329.426C410.489 334.037 406.009 338.613 401.362 343.01C399.104 345.168 396.899 347.386 394.688 349.602C391.254 353.017 387.752 356.289 384.147 359.484C380.142 363.047 376.314 366.745 372.546 370.602C368.022 375.229 363.353 379.586 358.544 383.851C355.069 386.986 351.673 390.21 348.284 393.455C347.652 394.06 347.019 394.665 346.368 395.289C345.084 396.518 343.801 397.747 342.518 398.976C334.583 406.563 326.597 414.064 318.435 421.356C315.32 424.166 312.246 427.026 309.177 429.896C304.424 434.337 299.633 438.72 294.793 443.047C292.374 445.222 289.97 447.414 287.573 449.618C286.836 450.292 286.1 450.967 285.341 451.662C283.895 452.987 282.452 454.315 281.012 455.647C272.335 463.578 264.622 470.476 252.918 469.974C244.042 468.673 237.546 462.323 231.178 455.846C226.904 451.559 222.359 447.624 217.865 443.621C211.188 437.67 204.608 431.612 198.098 425.44C194.581 422.112 191.031 418.839 187.428 415.621C182.595 411.305 177.872 406.86 173.158 402.388C169.559 398.981 165.921 395.643 162.23 392.357C157.861 388.456 153.687 384.371 149.53 380.201C146.961 377.69 144.324 375.307 141.648 372.935C136.516 368.367 131.669 363.527 126.831 358.592C123.952 355.67 121.022 352.828 118.064 350.005C114.849 346.912 111.69 343.752 108.521 340.603C106.439 338.549 104.342 336.52 102.229 334.504C97.323 329.798 92.5438 324.941 87.7589 320.088C86.1092 318.417 84.4551 316.752 82.8004 315.087C77.1467 309.388 71.6128 303.615 66.2291 297.604C63.6209 294.778 60.8697 292.168 58.0974 289.541C53.0234 284.623 48.4841 279.214 44.0873 273.572C42.8249 271.982 41.5317 270.421 40.2125 268.888C29.3631 256.198 20.6869 241.914 14.1398 226.074C13.3296 224.116 12.4888 222.173 11.6464 220.231C3.21889 199.996 -0.103299 178.412 0.00244011 156.28C0.00492248 155.451 0.00740484 154.622 0.00996243 153.769C0.0655678 141.782 0.263392 130.199 3.30812 118.603C3.53871 117.712 3.7693 116.821 4.00687 115.903C10.2302 92.527 19.7988 72.3535 34.2443 53.8192C34.9261 52.9332 35.6079 52.0471 36.3103 51.1342C40.6091 45.6623 45.0768 40.7666 50.2114 36.2507C51.2328 35.3476 52.2542 34.4446 53.3065 33.5142C68.4807 20.5005 85.5521 11.0812 104.1 5.50573C105.239 5.16036 106.377 4.815 107.55 4.45917C155.685 -8.35738 204.841 7.02153 241.117 43.2946ZM80.1496 75.7799C79.3494 76.5004 78.5493 77.2208 77.7249 77.9631C62.6313 92.1131 52.9876 110.694 48.2155 131.78C47.9916 132.69 47.7678 133.6 47.5372 134.538C41.7897 162.129 48.7986 191.167 61.1887 215.23C65.4616 222.547 70.4225 229.082 75.7875 235.454C77.7094 237.757 79.5728 240.091 81.4282 242.458C85.1392 247.138 89.0586 251.548 93.0605 255.926C93.7236 256.66 94.3867 257.394 95.07 258.15C99.0095 262.476 103.053 266.6 107.285 270.578C109.13 272.367 110.861 274.239 112.583 276.171C115.48 279.409 118.513 282.387 121.642 285.35C124.155 287.793 126.6 290.303 129.045 292.828C134.592 298.559 140.224 304.016 146.17 309.249C149.563 312.367 152.776 315.661 155.993 318.994C160.94 324.119 166.011 328.949 171.317 333.625C174.114 336.157 176.78 338.805 179.445 341.504C183.803 345.914 188.295 350.062 192.901 354.153C196.456 357.37 199.927 360.684 203.395 364.014C208.54 368.95 213.749 373.771 219.054 378.498C222.359 381.487 225.603 384.549 228.843 387.622C233.966 392.48 239.139 397.248 244.408 401.913C246.58 403.887 248.619 405.954 250.673 408.072C253.437 410.922 253.437 410.922 256.037 410.706C260.066 409.056 262.747 406.157 265.891 402.994C267.231 401.68 268.572 400.368 269.914 399.057C270.569 398.413 271.224 397.769 271.899 397.106C274.334 394.741 276.838 392.477 279.364 390.229C284.995 385.207 290.523 380.057 296.047 374.892C298.757 372.36 301.473 369.834 304.187 367.308C305.27 366.3 306.352 365.292 307.435 364.284C309.583 362.284 311.732 360.285 313.882 358.288C321.827 350.905 329.737 343.478 337.618 336.014C338.557 335.125 338.557 335.125 339.515 334.219C345.853 328.217 352.168 322.201 358.326 315.975C361.89 312.374 365.535 308.953 369.303 305.612C373.064 302.272 376.528 298.822 379.887 295.005C381.536 293.181 383.247 291.504 385.021 289.828C391.006 284.143 396.722 278.133 402.488 272.182C404.426 270.188 406.372 268.202 408.32 266.22C436.503 237.518 463.721 206.217 465.632 161.56C466.399 131.714 457.862 105.652 439.408 83.4662C422.17 64.006 398.421 51.7592 373.635 51.302C361.727 51.2249 350.931 51.8074 339.614 56.0153C338.96 56.2565 338.306 56.4976 337.633 56.7461C320.656 63.2074 307.402 74.6985 294.949 88.6689C294.27 89.4297 293.592 90.1905 292.894 90.9743C290.078 94.1428 287.269 97.318 284.475 100.508C282.405 102.865 280.321 105.204 278.233 107.541C277.307 108.614 277.307 108.614 276.361 109.708C271.337 115.298 265.941 118.871 258.847 120.285C258.023 120.273 257.198 120.262 256.349 120.25C255.527 120.262 254.705 120.273 253.858 120.285C244.803 118.559 238.883 114.111 232.694 106.859C231.966 106.039 231.238 105.218 230.488 104.372C228.178 101.765 225.889 99.1378 223.604 96.5053C203.293 73.2092 180.278 52.0866 149.331 51.3615C123.348 50.8845 100.466 56.892 80.1496 75.7799Z" fill="black"/>
</svg>
