<svg width="512" height="512" viewBox="0 0 512 512" fill="none" xmlns="http://www.w3.org/2000/svg">
<g clip-path="url(#clip0_73_6)">
<path d="M148.555 -0.51762C151.166 -0.523053 153.777 -0.530182 156.387 -0.53886C162.693 -0.556488 168.999 -0.552877 175.305 -0.54121C180.438 -0.532113 185.571 -0.530978 190.704 -0.535305C191.807 -0.536224 191.807 -0.536224 192.932 -0.537162C194.427 -0.538441 195.921 -0.539738 197.416 -0.541053C211.374 -0.552412 225.332 -0.539418 239.291 -0.517851C251.223 -0.499984 263.156 -0.50309 275.088 -0.521526C289.002 -0.543015 302.917 -0.551314 316.831 -0.539077C318.32 -0.537803 319.808 -0.536546 321.297 -0.535305C322.029 -0.534688 322.761 -0.534071 323.515 -0.533435C328.632 -0.530006 333.748 -0.535757 338.864 -0.545223C345.772 -0.557725 352.68 -0.548608 359.588 -0.525646C362.108 -0.520402 364.629 -0.521798 367.149 -0.530697C407.744 -0.660725 443.318 11.8506 472.554 40.5537C499.596 67.6044 512.466 103.487 512.542 141.274C512.535 143.701 512.526 146.128 512.518 148.555C512.523 151.166 512.53 153.776 512.539 156.387C512.557 162.693 512.553 168.999 512.541 175.305C512.532 180.438 512.531 185.571 512.535 190.704C512.536 191.439 512.537 192.174 512.537 192.932C512.539 194.426 512.54 195.921 512.541 197.415C512.553 211.374 512.54 225.332 512.518 239.291C512.5 251.223 512.503 263.155 512.522 275.088C512.543 289.002 512.551 302.916 512.539 316.831C512.538 318.319 512.537 319.808 512.535 321.296C512.535 322.028 512.534 322.761 512.534 323.515C512.53 328.631 512.536 333.748 512.545 338.864C512.558 345.772 512.549 352.68 512.526 359.588C512.521 362.108 512.522 364.628 512.531 367.148C512.661 407.744 500.15 443.318 471.447 472.554C444.396 499.596 408.513 512.466 370.726 512.542C368.299 512.534 365.872 512.526 363.446 512.518C360.835 512.523 358.224 512.53 355.613 512.539C349.307 512.556 343.001 512.553 336.695 512.541C331.562 512.532 326.43 512.531 321.297 512.535C320.194 512.536 320.194 512.536 319.068 512.537C317.574 512.538 316.079 512.54 314.585 512.541C300.626 512.552 286.668 512.539 272.71 512.518C260.777 512.5 248.845 512.503 236.912 512.521C222.998 512.543 209.084 512.551 195.169 512.539C193.681 512.538 192.192 512.536 190.704 512.535C189.972 512.535 189.24 512.534 188.485 512.533C183.369 512.53 178.252 512.536 173.136 512.545C166.228 512.558 159.32 512.548 152.412 512.526C149.892 512.52 147.372 512.522 144.852 512.531C104.256 512.661 68.682 500.149 39.446 471.446C12.4044 444.396 -0.46578 408.513 -0.541912 370.726C-0.534138 368.299 -0.525946 365.872 -0.517376 363.445C-0.522808 360.834 -0.529937 358.224 -0.538616 355.613C-0.556243 349.307 -0.552633 343.001 -0.540966 336.695C-0.531869 331.562 -0.530734 326.429 -0.53506 321.296C-0.535673 320.561 -0.536291 319.826 -0.536922 319.068C-0.538201 317.574 -0.539499 316.079 -0.540813 314.584C-0.552173 300.626 -0.539171 286.668 -0.517604 272.709C-0.499738 260.777 -0.502845 248.845 -0.521282 236.912C-0.542771 222.998 -0.551066 209.083 -0.538829 195.169C-0.537555 193.681 -0.536301 192.192 -0.53506 190.704C-0.534443 189.971 -0.533819 189.239 -0.533184 188.485C-0.529755 183.369 -0.535512 178.252 -0.544979 173.136C-0.557481 166.228 -0.548364 159.32 -0.525402 152.412C-0.520158 149.892 -0.521553 147.372 -0.530452 144.852C-0.66048 104.256 11.8509 68.6817 40.5539 39.4458C70.1445 9.86521 107.778 -0.661613 148.555 -0.51762ZM69.0002 56C68.1933 56.6638 67.3863 57.3277 66.5549 58.0117C46.586 74.9445 34.6818 99.2977 31.0002 125C30.7438 128.726 30.7251 132.434 30.7395 136.168C30.7357 137.237 30.7319 138.306 30.7279 139.407C30.7177 142.958 30.7216 146.51 30.7255 150.061C30.7212 152.62 30.716 155.179 30.7101 157.737C30.6981 163.948 30.6955 170.16 30.6979 176.371C30.6996 181.424 30.6979 186.478 30.6936 191.531C30.693 192.253 30.6924 192.974 30.6918 193.717C30.6906 195.183 30.6894 196.649 30.6882 198.114C30.6773 211.839 30.6795 225.563 30.6856 239.288C30.6907 251.816 30.6795 264.343 30.6605 276.871C30.6411 289.764 30.6328 302.657 30.6366 315.549C30.6385 322.776 30.6361 330.002 30.6219 337.229C30.6087 344.028 30.6113 350.828 30.6243 357.627C30.6267 360.114 30.624 362.601 30.6157 365.088C30.5261 394.074 36.3378 420.668 56.0002 443C56.996 444.21 56.996 444.21 58.0119 445.445C75.4156 465.969 101.157 478.547 127.788 481.287C139.101 482.195 150.395 482.148 161.737 482.145C164.01 482.148 166.284 482.152 168.557 482.155C174.698 482.164 180.839 482.167 186.98 482.167C190.827 482.168 194.674 482.17 198.521 482.173C211.281 482.181 224.041 482.186 236.801 482.185C237.487 482.185 238.172 482.185 238.878 482.185C239.908 482.185 239.908 482.185 240.958 482.185C252.066 482.185 263.173 482.194 274.28 482.208C285.734 482.223 297.187 482.229 308.64 482.229C315.051 482.229 321.461 482.231 327.872 482.242C333.909 482.252 339.946 482.252 345.983 482.244C348.182 482.243 350.381 482.246 352.579 482.252C380.741 482.336 380.741 482.336 408 476C408.976 475.652 409.952 475.304 410.957 474.945C438.985 464.064 460.19 443.878 472.677 416.545C482.065 395.133 482.152 373.193 482.145 350.263C482.148 347.99 482.152 345.717 482.156 343.443C482.164 337.302 482.167 331.161 482.167 325.021C482.168 321.173 482.17 317.326 482.173 313.479C482.182 300.719 482.186 287.959 482.186 275.199C482.186 274.514 482.186 273.828 482.186 273.122C482.185 272.435 482.185 271.749 482.185 271.042C482.185 259.935 482.195 248.827 482.209 237.72C482.223 226.267 482.23 214.813 482.229 203.36C482.229 196.949 482.232 190.539 482.242 184.128C482.252 178.091 482.252 172.054 482.245 166.017C482.244 163.818 482.246 161.619 482.252 159.421C482.336 131.259 482.336 131.259 476 104C475.652 103.024 475.304 102.048 474.946 101.043C464.064 73.0149 443.878 51.8098 416.545 39.323C403.407 33.5628 390.143 30.6839 375.832 30.7393C374.763 30.7354 373.694 30.7316 372.593 30.7277C369.042 30.7174 365.49 30.7213 361.939 30.7253C359.38 30.7209 356.822 30.7158 354.263 30.7098C348.052 30.6978 341.841 30.6953 335.629 30.6976C330.576 30.6994 325.522 30.6976 320.469 30.6934C319.748 30.6928 319.026 30.6922 318.283 30.6916C316.817 30.6904 315.352 30.6892 313.886 30.6879C300.161 30.6771 286.437 30.6792 272.712 30.6853C260.184 30.6905 247.657 30.6792 235.129 30.6602C222.236 30.6408 209.344 30.6326 196.451 30.6364C189.224 30.6383 181.998 30.6358 174.771 30.6216C167.972 30.6084 161.172 30.611 154.373 30.624C151.886 30.6264 149.399 30.6237 146.913 30.6154C117.926 30.5258 91.3319 36.3376 69.0002 56Z" fill="black"/>
<path d="M255.75 115.688C256.453 115.689 257.156 115.691 257.881 115.693C295.563 115.857 329.932 131.036 356.75 157.313C373.332 174.045 385.317 195.452 391.75 218.063C391.949 218.758 392.148 219.453 392.353 220.169C395.518 231.933 396.378 243.604 396.312 255.75C396.31 256.805 396.31 256.805 396.307 257.881C396.143 295.563 380.964 329.932 354.688 356.75C337.955 373.332 316.548 385.317 293.938 391.75C292.895 392.048 292.895 392.048 291.831 392.353C280.067 395.518 268.396 396.378 256.25 396.312C255.195 396.31 255.195 396.31 254.119 396.307C216.437 396.143 182.068 380.964 155.25 354.688C138.668 337.955 126.683 316.548 120.25 293.938C120.051 293.242 119.852 292.547 119.647 291.831C116.482 280.067 115.622 268.396 115.688 256.25C115.689 255.547 115.691 254.844 115.693 254.119C115.857 216.437 131.036 182.068 157.313 155.25C174.045 138.668 195.452 126.683 218.063 120.25C218.758 120.051 219.453 119.852 220.169 119.647C231.933 116.482 243.604 115.622 255.75 115.688ZM224 151C222.86 151.362 221.721 151.724 220.547 152.098C190.643 162.752 168.488 184.355 154.95 212.848C144.767 235.915 143.36 264.02 151 288C151.543 289.709 151.543 289.709 152.098 291.453C162.752 321.357 184.355 343.512 212.848 357.05C235.915 367.233 264.02 368.64 288 361C289.14 360.638 290.279 360.276 291.453 359.902C321.357 349.248 343.512 327.645 357.05 299.152C367.233 276.085 368.64 247.98 361 224C360.638 222.86 360.276 221.721 359.902 220.547C349.248 190.643 327.645 168.488 299.152 154.95C276.085 144.767 247.98 143.36 224 151Z" fill="black"/>
<path d="M424.812 73.6249C433.552 80.45 438.804 89.1252 441 99.9999C442.418 113.76 439.649 124.688 431.125 135.594C424.172 143.466 414.441 148.494 404 149.937C391.123 150.64 379.603 146.466 370 138C361.496 129.653 357.185 118.878 357 107C357.658 96.1844 361.7 85.5816 369.184 77.5898C385.332 63.4556 406.835 61.5424 424.812 73.6249ZM391 99.9999C388.335 103.998 388.159 107.297 389 112C391.271 115.024 391.271 115.024 394 117C394.33 117.33 394.66 117.66 395 118C398.054 118.442 400.95 118.477 404 118C406.756 115.818 408.436 114.128 410 111C410.53 106.441 410.53 106.441 408.953 102.242C407.164 100.064 405.541 98.2703 403 96.9999C398.003 96.6228 395.009 96.907 391 99.9999Z" fill="black"/>
</g>
<defs>
<clipPath id="clip0_73_6">
<rect width="512" height="512" fill="white"/>
</clipPath>
</defs>
</svg>
