<svg width="512" height="512" viewBox="0 0 512 512" fill="none" xmlns="http://www.w3.org/2000/svg">
<g clip-path="url(#clip0_73_14)">
<path d="M255.625 -0.31261C256.643 -0.310455 257.661 -0.3083 258.709 -0.306079C273.319 -0.256409 287.651 -0.00551176 302 2.99989C302.975 3.19857 303.95 3.39724 304.954 3.60194C353.336 13.7226 397.324 35.6391 433 69.9999C433.989 70.9481 433.989 70.9481 434.998 71.9154C444.486 81.0599 453.226 90.3572 461 101C461.858 102.151 462.716 103.302 463.574 104.453C469.612 112.643 474.994 121.145 480 130C480.402 130.707 480.804 131.414 481.219 132.143C494.244 155.278 502.993 180.45 508.312 206.437C508.46 207.156 508.607 207.875 508.759 208.616C511.733 224.262 512.373 239.736 512.312 255.625C512.31 256.643 512.308 257.661 512.306 258.709C512.256 273.319 512.005 287.651 509 302C508.702 303.462 508.702 303.462 508.398 304.954C498.277 353.336 476.361 397.324 442 433C441.368 433.659 440.736 434.319 440.084 434.998C430.94 444.486 421.643 453.226 411 461C409.849 461.858 408.698 462.716 407.547 463.574C399.357 469.612 390.854 474.994 382 480C381.293 480.402 380.585 480.804 379.857 481.219C356.721 494.244 331.55 502.993 305.562 508.312C304.843 508.46 304.125 508.607 303.384 508.759C288.708 511.548 274.183 512.349 259.273 512.316C256.333 512.312 253.394 512.336 250.455 512.361C237.082 512.406 224.186 511.2 211 509C209.294 508.718 209.294 508.718 207.554 508.43C204.959 507.964 202.387 507.445 199.812 506.875C198.423 506.568 198.423 506.568 197.006 506.255C152.556 495.919 111.82 473.611 78.9999 442C78.3405 441.368 77.6812 440.736 77.0018 440.084C67.5136 430.94 58.7737 421.643 50.9999 411C50.1418 409.849 49.2838 408.698 48.4257 407.547C42.3881 399.357 37.0053 390.854 31.9999 382C31.5977 381.293 31.1955 380.585 30.7811 379.857C17.7557 356.721 9.00688 331.55 3.68739 305.562C3.54003 304.843 3.39268 304.125 3.24086 303.384C0.266999 287.738 -0.373114 272.264 -0.31261 256.375C-0.310455 255.357 -0.3083 254.339 -0.306079 253.29C-0.256409 238.681 -0.00551176 224.349 2.99989 210C3.19857 209.025 3.39724 208.05 3.60194 207.046C13.4658 159.892 34.4874 116.771 67.5897 81.621C70.0114 79.0515 70.0114 79.0515 72.0936 76.3593C73.8083 74.237 75.4813 72.5609 77.5624 70.8124C80.7941 68.061 83.9049 65.2166 86.9999 62.3124C120.253 32.1196 162.673 12.6455 206.437 3.68739C207.156 3.54003 207.875 3.39268 208.616 3.24086C224.262 0.266999 239.736 -0.373114 255.625 -0.31261ZM353.558 159.039C352.463 159.467 351.368 159.895 350.24 160.336C346.633 161.75 343.035 163.188 339.437 164.625C336.887 165.631 334.334 166.632 331.781 167.633C327.147 169.45 322.515 171.274 317.886 173.104C306.288 177.687 294.653 182.171 283.014 186.648C277.097 188.925 271.183 191.209 265.269 193.492C262.895 194.408 260.521 195.325 258.147 196.241C252.159 198.552 246.172 200.864 240.185 203.176C234.186 205.493 228.186 207.809 222.187 210.125C221.013 210.578 219.839 211.032 218.63 211.499C204.546 216.936 190.46 222.364 176.367 227.777C166.738 231.475 157.11 235.18 147.485 238.888C144.036 240.216 140.587 241.543 137.136 242.866C133.129 244.402 129.127 245.95 125.125 247.5C124.038 247.915 122.952 248.329 121.833 248.756C116.766 250.731 112.371 252.755 108 256C107.361 256.433 106.721 256.866 106.062 257.312C104.701 259.152 104.701 259.152 104.937 262.437C106.307 267.031 107.912 267.646 112 270C115.129 271.303 115.129 271.303 118.477 272.322C119.094 272.521 119.711 272.719 120.347 272.924C122.365 273.571 124.387 274.204 126.41 274.836C127.825 275.283 129.239 275.73 130.653 276.178C133.607 277.111 136.564 278.036 139.522 278.956C143.309 280.136 147.088 281.339 150.866 282.548C153.781 283.478 156.699 284.392 159.619 285.302C161.015 285.739 162.41 286.182 163.802 286.63C165.747 287.253 167.7 287.854 169.652 288.454C170.76 288.802 171.868 289.15 173.009 289.508C177.766 290.29 180.899 288.216 184.801 285.707C185.518 285.249 186.235 284.792 186.975 284.32C187.746 283.823 188.518 283.325 189.312 282.812C191.016 281.724 192.721 280.637 194.426 279.551C195.329 278.974 196.232 278.397 197.162 277.803C202.089 274.672 207.046 271.588 212 268.5C221.588 262.515 231.155 256.496 240.705 250.452C245.431 247.462 250.159 244.478 254.887 241.493C258.784 239.032 262.68 236.57 266.574 234.105C276.38 227.902 286.208 221.734 296.055 215.596C300.908 212.568 305.753 209.528 310.574 206.449C311.872 205.622 311.872 205.622 313.197 204.777C314.809 203.748 316.418 202.716 318.025 201.68C323.285 198.325 327.566 195.632 334 196C332.564 201.592 328.497 204.649 324.375 208.375C323.688 209.009 323.001 209.643 322.293 210.297C318.204 214.056 314.041 217.726 309.853 221.374C307.238 223.668 304.681 226.017 302.125 228.375C295.987 234.023 289.788 239.603 283.578 245.172C278.985 249.296 274.418 253.446 269.875 257.625C266.004 261.185 262.09 264.687 258.117 268.133C254.891 270.978 251.733 273.896 248.567 276.808C243.744 281.242 238.876 285.625 234 290C231.509 292.241 229.018 294.483 226.535 296.734C224.772 298.31 222.986 299.86 221.183 301.391C220.277 302.169 219.371 302.948 218.437 303.75C217.611 304.446 216.785 305.142 215.933 305.859C212.581 309.571 212.835 314.24 212.519 319.075C212.399 320.877 212.399 320.877 212.277 322.714C212.194 324.001 212.112 325.288 212.027 326.613C211.939 327.951 211.851 329.289 211.762 330.627C211.531 334.137 211.304 337.647 211.077 341.157C210.845 344.743 210.609 348.33 210.373 351.916C209.912 358.944 209.454 365.972 209 373C215.967 371.099 215.967 371.099 221.66 366.891C222.222 366.304 222.783 365.718 223.362 365.114C223.923 364.499 224.484 363.884 225.062 363.25C226.277 361.976 227.493 360.704 228.711 359.433C229.282 358.831 229.852 358.229 230.44 357.609C232.815 355.159 235.383 352.983 238 350.801C241.697 347.472 245.022 343.724 248.387 340.062C251 338 251 338 253.476 337.922C256.668 339.285 258.988 341.062 261.687 343.25C262.839 344.167 263.993 345.08 265.148 345.992C265.767 346.48 266.385 346.969 267.022 347.472C270.551 350.199 274.185 352.78 277.812 355.375C283.676 359.581 289.491 363.84 295.25 368.187C300.331 372.011 305.419 375.823 310.562 379.562C311.11 379.968 311.657 380.374 312.222 380.792C316.829 384.113 321.413 386.578 327.062 387.5C331.11 386.811 333.496 385.148 336 382C339.781 374.7 341.375 366.721 343.017 358.734C343.293 357.426 343.57 356.118 343.848 354.81C344.596 351.271 345.333 347.731 346.068 344.189C346.854 340.413 347.65 336.64 348.446 332.866C349.961 325.665 351.468 318.462 352.971 311.258C354.798 302.503 356.637 293.751 358.476 284.998C360.438 275.664 362.397 266.329 364.346 256.992C364.984 253.935 365.623 250.877 366.262 247.82C366.418 247.072 366.574 246.324 366.735 245.553C368.862 235.376 371.019 225.205 373.202 215.04C374.195 210.417 375.181 205.794 376.169 201.17C376.696 198.714 377.226 196.259 377.759 193.805C378.487 190.454 379.205 187.102 379.92 183.748C380.133 182.783 380.346 181.817 380.566 180.823C382.867 170.23 382.867 170.23 380.187 160.062C378.173 156.859 378.173 156.859 375 155C367.226 153.738 360.665 156.157 353.558 159.039Z" fill="black"/>
</g>
<defs>
<clipPath id="clip0_73_14">
<rect width="512" height="512" fill="white"/>
</clipPath>
</defs>
</svg>
